<svg width="296" height="278" viewBox="0 0 296 278" fill="none" xmlns="http://www.w3.org/2000/svg">
<g opacity="0.5">
<circle cx="4" cy="4" r="4" fill="white"/>
<circle cx="4" cy="22" r="4" fill="white"/>
<circle cx="4" cy="40" r="4" fill="white"/>
<circle cx="4" cy="58" r="4" fill="white"/>
<circle cx="4" cy="76" r="4" fill="white"/>
<circle cx="4" cy="94" r="4" fill="white"/>
<circle cx="4" cy="112" r="4" fill="white"/>
<circle cx="4" cy="130" r="4" fill="white"/>
<circle cx="4" cy="148" r="4" fill="white"/>
<circle cx="4" cy="166" r="4" fill="white"/>
<circle cx="4" cy="184" r="4" fill="white"/>
<circle cx="4" cy="202" r="4" fill="white"/>
<circle cx="4" cy="220" r="4" fill="white"/>
<circle cx="4" cy="238" r="4" fill="white"/>
<circle cx="4" cy="256" r="4" fill="white"/>
<circle cx="4" cy="274" r="4" fill="white"/>
<circle cx="22" cy="4" r="4" fill="white"/>
<circle cx="22" cy="22" r="4" fill="white"/>
<circle cx="22" cy="40" r="4" fill="white"/>
<circle cx="22" cy="58" r="4" fill="white"/>
<circle cx="22" cy="76" r="4" fill="white"/>
<circle cx="22" cy="94" r="4" fill="white"/>
<circle cx="22" cy="112" r="4" fill="white"/>
<circle cx="22" cy="130" r="4" fill="white"/>
<circle cx="22" cy="148" r="4" fill="white"/>
<circle cx="22" cy="166" r="4" fill="white"/>
<circle cx="22" cy="184" r="4" fill="white"/>
<circle cx="22" cy="202" r="4" fill="white"/>
<circle cx="22" cy="220" r="4" fill="white"/>
<circle cx="22" cy="238" r="4" fill="white"/>
<circle cx="22" cy="256" r="4" fill="white"/>
<circle cx="22" cy="274" r="4" fill="white"/>
<circle cx="40" cy="4" r="4" fill="white"/>
<circle cx="40" cy="22" r="4" fill="white"/>
<circle cx="40" cy="40" r="4" fill="white"/>
<circle cx="40" cy="58" r="4" fill="white"/>
<circle cx="40" cy="76" r="4" fill="white"/>
<circle cx="40" cy="94" r="4" fill="white"/>
<circle cx="40" cy="112" r="4" fill="white"/>
<circle cx="40" cy="130" r="4" fill="white"/>
<circle cx="40" cy="148" r="4" fill="white"/>
<circle cx="40" cy="166" r="4" fill="white"/>
<circle cx="40" cy="184" r="4" fill="white"/>
<circle cx="40" cy="202" r="4" fill="white"/>
<circle cx="40" cy="220" r="4" fill="white"/>
<circle cx="40" cy="238" r="4" fill="white"/>
<circle cx="40" cy="256" r="4" fill="white"/>
<circle cx="40" cy="274" r="4" fill="white"/>
<circle cx="58" cy="4" r="4" fill="white"/>
<circle cx="58" cy="22" r="4" fill="white"/>
<circle cx="58" cy="40" r="4" fill="white"/>
<circle cx="58" cy="58" r="4" fill="white"/>
<circle cx="58" cy="76" r="4" fill="white"/>
<circle cx="58" cy="94" r="4" fill="white"/>
<circle cx="58" cy="112" r="4" fill="white"/>
<circle cx="58" cy="130" r="4" fill="white"/>
<circle cx="58" cy="148" r="4" fill="white"/>
<circle cx="58" cy="166" r="4" fill="white"/>
<circle cx="58" cy="184" r="4" fill="white"/>
<circle cx="58" cy="202" r="4" fill="white"/>
<circle cx="58" cy="220" r="4" fill="white"/>
<circle cx="58" cy="238" r="4" fill="white"/>
<circle cx="58" cy="256" r="4" fill="white"/>
<circle cx="58" cy="274" r="4" fill="white"/>
<circle cx="76" cy="4" r="4" fill="white"/>
<circle cx="76" cy="22" r="4" fill="white"/>
<circle cx="76" cy="40" r="4" fill="white"/>
<circle cx="76" cy="58" r="4" fill="white"/>
<circle cx="76" cy="76" r="4" fill="white"/>
<circle cx="76" cy="94" r="4" fill="white"/>
<circle cx="76" cy="112" r="4" fill="white"/>
<circle cx="76" cy="130" r="4" fill="white"/>
<circle cx="76" cy="148" r="4" fill="white"/>
<circle cx="76" cy="166" r="4" fill="white"/>
<circle cx="76" cy="184" r="4" fill="white"/>
<circle cx="76" cy="202" r="4" fill="white"/>
<circle cx="76" cy="220" r="4" fill="white"/>
<circle cx="76" cy="238" r="4" fill="white"/>
<circle cx="76" cy="256" r="4" fill="white"/>
<circle cx="76" cy="274" r="4" fill="white"/>
<circle cx="94" cy="4" r="4" fill="white"/>
<circle cx="94" cy="22" r="4" fill="white"/>
<circle cx="94" cy="40" r="4" fill="white"/>
<circle cx="94" cy="58" r="4" fill="white"/>
<circle cx="94" cy="76" r="4" fill="white"/>
<circle cx="94" cy="94" r="4" fill="white"/>
<circle cx="94" cy="112" r="4" fill="white"/>
<circle cx="94" cy="130" r="4" fill="white"/>
<circle cx="94" cy="148" r="4" fill="white"/>
<circle cx="94" cy="166" r="4" fill="white"/>
<circle cx="94" cy="184" r="4" fill="white"/>
<circle cx="94" cy="202" r="4" fill="white"/>
<circle cx="94" cy="220" r="4" fill="white"/>
<circle cx="94" cy="238" r="4" fill="white"/>
<circle cx="94" cy="256" r="4" fill="white"/>
<circle cx="94" cy="274" r="4" fill="white"/>
<circle cx="112" cy="4" r="4" fill="white"/>
<circle cx="112" cy="22" r="4" fill="white"/>
<circle cx="112" cy="40" r="4" fill="white"/>
<circle cx="112" cy="58" r="4" fill="white"/>
<circle cx="112" cy="76" r="4" fill="white"/>
<circle cx="112" cy="94" r="4" fill="white"/>
<circle cx="112" cy="112" r="4" fill="white"/>
<circle cx="112" cy="130" r="4" fill="white"/>
<circle cx="112" cy="148" r="4" fill="white"/>
<circle cx="112" cy="166" r="4" fill="white"/>
<circle cx="112" cy="184" r="4" fill="white"/>
<circle cx="112" cy="202" r="4" fill="white"/>
<circle cx="112" cy="220" r="4" fill="white"/>
<circle cx="112" cy="238" r="4" fill="white"/>
<circle cx="112" cy="256" r="4" fill="white"/>
<circle cx="112" cy="274" r="4" fill="white"/>
<circle cx="130" cy="4" r="4" fill="white"/>
<circle cx="130" cy="22" r="4" fill="white"/>
<circle cx="130" cy="40" r="4" fill="white"/>
<circle cx="130" cy="58" r="4" fill="white"/>
<circle cx="130" cy="76" r="4" fill="white"/>
<circle cx="130" cy="94" r="4" fill="white"/>
<circle cx="130" cy="112" r="4" fill="white"/>
<circle cx="130" cy="130" r="4" fill="white"/>
<circle cx="130" cy="148" r="4" fill="white"/>
<circle cx="130" cy="166" r="4" fill="white"/>
<circle cx="130" cy="184" r="4" fill="white"/>
<circle cx="130" cy="202" r="4" fill="white"/>
<circle cx="130" cy="220" r="4" fill="white"/>
<circle cx="130" cy="238" r="4" fill="white"/>
<circle cx="130" cy="256" r="4" fill="white"/>
<circle cx="130" cy="274" r="4" fill="white"/>
<circle cx="148" cy="4" r="4" fill="white"/>
<circle cx="148" cy="22" r="4" fill="white"/>
<circle cx="148" cy="40" r="4" fill="white"/>
<circle cx="148" cy="58" r="4" fill="white"/>
<circle cx="148" cy="76" r="4" fill="white"/>
<circle cx="148" cy="94" r="4" fill="white"/>
<circle cx="148" cy="112" r="4" fill="white"/>
<circle cx="148" cy="130" r="4" fill="white"/>
<circle cx="148" cy="148" r="4" fill="white"/>
<circle cx="148" cy="166" r="4" fill="white"/>
<circle cx="148" cy="184" r="4" fill="white"/>
<circle cx="148" cy="202" r="4" fill="white"/>
<circle cx="148" cy="220" r="4" fill="white"/>
<circle cx="148" cy="238" r="4" fill="white"/>
<circle cx="148" cy="256" r="4" fill="white"/>
<circle cx="148" cy="274" r="4" fill="white"/>
<circle cx="166" cy="4" r="4" fill="white"/>
<circle cx="166" cy="22" r="4" fill="white"/>
<circle cx="166" cy="40" r="4" fill="white"/>
<circle cx="166" cy="58" r="4" fill="white"/>
<circle cx="166" cy="76" r="4" fill="white"/>
<circle cx="166" cy="94" r="4" fill="white"/>
<circle cx="166" cy="112" r="4" fill="white"/>
<circle cx="166" cy="130" r="4" fill="white"/>
<circle cx="166" cy="148" r="4" fill="white"/>
<circle cx="166" cy="166" r="4" fill="white"/>
<circle cx="166" cy="184" r="4" fill="white"/>
<circle cx="166" cy="202" r="4" fill="white"/>
<circle cx="166" cy="220" r="4" fill="white"/>
<circle cx="166" cy="238" r="4" fill="white"/>
<circle cx="166" cy="256" r="4" fill="white"/>
<circle cx="166" cy="274" r="4" fill="white"/>
<circle cx="184" cy="4" r="4" fill="white"/>
<circle cx="184" cy="22" r="4" fill="white"/>
<circle cx="184" cy="40" r="4" fill="white"/>
<circle cx="184" cy="58" r="4" fill="white"/>
<circle cx="184" cy="76" r="4" fill="white"/>
<circle cx="184" cy="94" r="4" fill="white"/>
<circle cx="184" cy="112" r="4" fill="white"/>
<circle cx="184" cy="130" r="4" fill="white"/>
<circle cx="184" cy="148" r="4" fill="white"/>
<circle cx="184" cy="166" r="4" fill="white"/>
<circle cx="184" cy="184" r="4" fill="white"/>
<circle cx="184" cy="202" r="4" fill="white"/>
<circle cx="184" cy="220" r="4" fill="white"/>
<circle cx="184" cy="238" r="4" fill="white"/>
<circle cx="184" cy="256" r="4" fill="white"/>
<circle cx="184" cy="274" r="4" fill="white"/>
<circle cx="202" cy="4" r="4" fill="white"/>
<circle cx="202" cy="22" r="4" fill="white"/>
<circle cx="202" cy="40" r="4" fill="white"/>
<circle cx="202" cy="58" r="4" fill="white"/>
<circle cx="202" cy="76" r="4" fill="white"/>
<circle cx="202" cy="94" r="4" fill="white"/>
<circle cx="202" cy="112" r="4" fill="white"/>
<circle cx="202" cy="130" r="4" fill="white"/>
<circle cx="202" cy="148" r="4" fill="white"/>
<circle cx="202" cy="166" r="4" fill="white"/>
<circle cx="202" cy="184" r="4" fill="white"/>
<circle cx="202" cy="202" r="4" fill="white"/>
<circle cx="202" cy="220" r="4" fill="white"/>
<circle cx="202" cy="238" r="4" fill="white"/>
<circle cx="202" cy="256" r="4" fill="white"/>
<circle cx="202" cy="274" r="4" fill="white"/>
<circle cx="220" cy="4" r="4" fill="white"/>
<circle cx="220" cy="22" r="4" fill="white"/>
<circle cx="220" cy="40" r="4" fill="white"/>
<circle cx="220" cy="58" r="4" fill="white"/>
<circle cx="220" cy="76" r="4" fill="white"/>
<circle cx="220" cy="94" r="4" fill="white"/>
<circle cx="220" cy="112" r="4" fill="white"/>
<circle cx="220" cy="130" r="4" fill="white"/>
<circle cx="220" cy="148" r="4" fill="white"/>
<circle cx="220" cy="166" r="4" fill="white"/>
<circle cx="220" cy="184" r="4" fill="white"/>
<circle cx="220" cy="202" r="4" fill="white"/>
<circle cx="220" cy="220" r="4" fill="white"/>
<circle cx="220" cy="238" r="4" fill="white"/>
<circle cx="220" cy="256" r="4" fill="white"/>
<circle cx="220" cy="274" r="4" fill="white"/>
<circle cx="238" cy="4" r="4" fill="white"/>
<circle cx="238" cy="22" r="4" fill="white"/>
<circle cx="238" cy="40" r="4" fill="white"/>
<circle cx="238" cy="58" r="4" fill="white"/>
<circle cx="238" cy="76" r="4" fill="white"/>
<circle cx="238" cy="94" r="4" fill="white"/>
<circle cx="238" cy="112" r="4" fill="white"/>
<circle cx="238" cy="130" r="4" fill="white"/>
<circle cx="238" cy="148" r="4" fill="white"/>
<circle cx="238" cy="166" r="4" fill="white"/>
<circle cx="238" cy="184" r="4" fill="white"/>
<circle cx="238" cy="202" r="4" fill="white"/>
<circle cx="238" cy="220" r="4" fill="white"/>
<circle cx="238" cy="238" r="4" fill="white"/>
<circle cx="238" cy="256" r="4" fill="white"/>
<circle cx="238" cy="274" r="4" fill="white"/>
<circle cx="256" cy="4" r="4" fill="white"/>
<circle cx="256" cy="22" r="4" fill="white"/>
<circle cx="256" cy="40" r="4" fill="white"/>
<circle cx="256" cy="58" r="4" fill="white"/>
<circle cx="256" cy="76" r="4" fill="white"/>
<circle cx="256" cy="94" r="4" fill="white"/>
<circle cx="256" cy="112" r="4" fill="white"/>
<circle cx="256" cy="130" r="4" fill="white"/>
<circle cx="256" cy="148" r="4" fill="white"/>
<circle cx="256" cy="166" r="4" fill="white"/>
<circle cx="256" cy="184" r="4" fill="white"/>
<circle cx="256" cy="202" r="4" fill="white"/>
<circle cx="256" cy="220" r="4" fill="white"/>
<circle cx="256" cy="238" r="4" fill="white"/>
<circle cx="256" cy="256" r="4" fill="white"/>
<circle cx="256" cy="274" r="4" fill="white"/>
<circle cx="274" cy="4" r="4" fill="white"/>
<circle cx="274" cy="22" r="4" fill="white"/>
<circle cx="274" cy="40" r="4" fill="white"/>
<circle cx="274" cy="58" r="4" fill="white"/>
<circle cx="274" cy="76" r="4" fill="white"/>
<circle cx="274" cy="94" r="4" fill="white"/>
<circle cx="274" cy="112" r="4" fill="white"/>
<circle cx="274" cy="130" r="4" fill="white"/>
<circle cx="274" cy="148" r="4" fill="white"/>
<circle cx="274" cy="166" r="4" fill="white"/>
<circle cx="274" cy="184" r="4" fill="white"/>
<circle cx="274" cy="202" r="4" fill="white"/>
<circle cx="274" cy="220" r="4" fill="white"/>
<circle cx="274" cy="238" r="4" fill="white"/>
<circle cx="274" cy="256" r="4" fill="white"/>
<circle cx="274" cy="274" r="4" fill="white"/>
<circle cx="292" cy="4" r="4" fill="white"/>
<circle cx="292" cy="22" r="4" fill="white"/>
<circle cx="292" cy="40" r="4" fill="white"/>
<circle cx="292" cy="58" r="4" fill="white"/>
<circle cx="292" cy="76" r="4" fill="white"/>
<circle cx="292" cy="94" r="4" fill="white"/>
<circle cx="292" cy="112" r="4" fill="white"/>
<circle cx="292" cy="130" r="4" fill="white"/>
<circle cx="292" cy="148" r="4" fill="white"/>
<circle cx="292" cy="166" r="4" fill="white"/>
<circle cx="292" cy="184" r="4" fill="white"/>
<circle cx="292" cy="202" r="4" fill="white"/>
<circle cx="292" cy="220" r="4" fill="white"/>
<circle cx="292" cy="238" r="4" fill="white"/>
<circle cx="292" cy="256" r="4" fill="white"/>
<circle cx="292" cy="274" r="4" fill="white"/>
</g>
</svg>
