<svg width="20" height="20" viewBox="0 0 20 20" fill="none" xmlns="http://www.w3.org/2000/svg">
<path d="M10.0003 1.6665C8.35215 1.6665 6.74099 2.15525 5.37058 3.07092C4.00017 3.9866 2.93206 5.28809 2.30133 6.81081C1.6706 8.33353 1.50558 10.0091 1.82712 11.6256C2.14866 13.2421 2.94234 14.727 4.10777 15.8924C5.27321 17.0578 6.75807 17.8515 8.37458 18.173C9.99109 18.4946 11.6666 18.3296 13.1894 17.6988C14.7121 17.0681 16.0136 16 16.9292 14.6296C17.8449 13.2592 18.3337 11.648 18.3337 9.99984C18.3337 8.90549 18.1181 7.82186 17.6993 6.81081C17.2805 5.79976 16.6667 4.8811 15.8929 4.10728C15.1191 3.33346 14.2004 2.71963 13.1894 2.30084C12.1783 1.88205 11.0947 1.6665 10.0003 1.6665ZM10.0003 16.6665C8.68179 16.6665 7.39286 16.2755 6.29653 15.543C5.2002 14.8104 4.34572 13.7692 3.84113 12.5511C3.33655 11.3329 3.20453 9.99244 3.46176 8.69924C3.719 7.40603 4.35393 6.21814 5.28628 5.28579C6.21863 4.35344 7.40652 3.7185 8.69973 3.46127C9.99293 3.20403 11.3334 3.33606 12.5516 3.84064C13.7697 4.34522 14.8109 5.19971 15.5435 6.29604C16.276 7.39236 16.667 8.6813 16.667 9.99984C16.667 11.7679 15.9646 13.4636 14.7144 14.7139C13.4641 15.9641 11.7684 16.6665 10.0003 16.6665ZM13.3337 9.1665H10.8337V6.6665C10.8337 6.44549 10.7459 6.23353 10.5896 6.07725C10.4333 5.92097 10.2213 5.83317 10.0003 5.83317C9.77932 5.83317 9.56735 5.92097 9.41107 6.07725C9.25479 6.23353 9.167 6.44549 9.167 6.6665V9.1665H6.667C6.44598 9.1665 6.23402 9.2543 6.07774 9.41058C5.92146 9.56686 5.83366 9.77882 5.83366 9.99984C5.83366 10.2209 5.92146 10.4328 6.07774 10.5891C6.23402 10.7454 6.44598 10.8332 6.667 10.8332H9.167V13.3332C9.167 13.5542 9.25479 13.7661 9.41107 13.9224C9.56735 14.0787 9.77932 14.1665 10.0003 14.1665C10.2213 14.1665 10.4333 14.0787 10.5896 13.9224C10.7459 13.7661 10.8337 13.5542 10.8337 13.3332V10.8332H13.3337C13.5547 10.8332 13.7666 10.7454 13.9229 10.5891C14.0792 10.4328 14.167 10.2209 14.167 9.99984C14.167 9.77882 14.0792 9.56686 13.9229 9.41058C13.7666 9.2543 13.5547 9.1665 13.3337 9.1665Z" fill="#F93E6C"/>
</svg>
