<svg width="20" height="20" viewBox="0 0 20 20" fill="none" xmlns="http://www.w3.org/2000/svg">
<path d="M13.5755 11.9083L10.0005 15.4916L6.42548 11.9083C6.26856 11.7514 6.05573 11.6632 5.83381 11.6632C5.6119 11.6632 5.39907 11.7514 5.24215 11.9083C5.08523 12.0652 4.99707 12.278 4.99707 12.4999C4.99707 12.7219 5.08523 12.9347 5.24215 13.0916L9.40881 17.2583C9.48628 17.3364 9.57845 17.3984 9.68 17.4407C9.78155 17.483 9.89047 17.5048 10.0005 17.5048C10.1105 17.5048 10.2194 17.483 10.321 17.4407C10.4225 17.3984 10.5147 17.3364 10.5921 17.2583L14.7588 13.0916C14.8365 13.0139 14.8981 12.9217 14.9402 12.8202C14.9822 12.7186 15.0039 12.6098 15.0039 12.4999C15.0039 12.3901 14.9822 12.2813 14.9402 12.1797C14.8981 12.0782 14.8365 11.986 14.7588 11.9083C14.6811 11.8306 14.5889 11.7689 14.4874 11.7269C14.3858 11.6848 14.277 11.6632 14.1671 11.6632C14.0573 11.6632 13.9485 11.6848 13.8469 11.7269C13.7454 11.7689 13.6532 11.8306 13.5755 11.9083ZM6.42548 8.09162L10.0005 4.50828L13.5755 8.09162C13.653 8.16972 13.7451 8.23172 13.8467 8.27402C13.9482 8.31633 14.0571 8.33811 14.1671 8.33811C14.2772 8.33811 14.3861 8.31633 14.4876 8.27402C14.5892 8.23172 14.6813 8.16972 14.7588 8.09162C14.8369 8.01415 14.8989 7.92198 14.9412 7.82043C14.9835 7.71888 15.0053 7.60996 15.0053 7.49995C15.0053 7.38994 14.9835 7.28102 14.9412 7.17947C14.8989 7.07792 14.8369 6.98575 14.7588 6.90828L10.5921 2.74162C10.5147 2.66351 10.4225 2.60151 10.321 2.55921C10.2194 2.5169 10.1105 2.49512 10.0005 2.49512C9.89047 2.49512 9.78155 2.5169 9.68 2.55921C9.57845 2.60151 9.48628 2.66351 9.40881 2.74162L5.24215 6.90828C5.08523 7.0652 4.99707 7.27803 4.99707 7.49995C4.99707 7.72187 5.08523 7.9347 5.24215 8.09162C5.39907 8.24854 5.6119 8.33669 5.83381 8.33669C6.05573 8.33669 6.26856 8.24854 6.42548 8.09162Z" fill="#83828E"/>
</svg>
