<svg width="18" height="20" viewBox="0 0 18 20" fill="none" xmlns="http://www.w3.org/2000/svg">
<path d="M5.18341 12.9502C5.0282 13.1063 4.94108 13.3175 4.94108 13.5377C4.94108 13.7578 5.0282 13.969 5.18341 14.1252C5.26088 14.2033 5.35305 14.2653 5.4546 14.3076C5.55615 14.3499 5.66507 14.3717 5.77508 14.3717C5.88509 14.3717 5.99401 14.3499 6.09556 14.3076C6.19711 14.2653 6.28928 14.2033 6.36674 14.1252C6.52195 13.969 6.60907 13.7578 6.60907 13.5377C6.60907 13.3175 6.52195 13.1063 6.36674 12.9502C6.28928 12.872 6.19711 12.8101 6.09556 12.7677C5.99401 12.7254 5.88509 12.7037 5.77508 12.7037C5.66507 12.7037 5.55615 12.7254 5.4546 12.7677C5.35305 12.8101 5.26088 12.872 5.18341 12.9502ZM5.18341 5.87516C5.0282 6.03129 4.94108 6.2425 4.94108 6.46266C4.94108 6.68281 5.0282 6.89402 5.18341 7.05016C5.26088 7.12826 5.35305 7.19026 5.4546 7.23257C5.55615 7.27487 5.66507 7.29665 5.77508 7.29665C5.88509 7.29665 5.99401 7.27487 6.09556 7.23257C6.19711 7.19026 6.28928 7.12826 6.36674 7.05016C6.52195 6.89402 6.60907 6.68281 6.60907 6.46266C6.60907 6.2425 6.52195 6.03129 6.36674 5.87516C6.28928 5.79705 6.19711 5.73505 6.09556 5.69275C5.99401 5.65044 5.88509 5.62866 5.77508 5.62866C5.66507 5.62866 5.55615 5.65044 5.4546 5.69275C5.35305 5.73505 5.26088 5.79705 5.18341 5.87516ZM9.30841 14.2085C9.14359 14.2085 8.98248 14.2574 8.84544 14.3489C8.7084 14.4405 8.60158 14.5706 8.53851 14.7229C8.47544 14.8752 8.45894 15.0427 8.49109 15.2044C8.52324 15.366 8.60261 15.5145 8.71916 15.6311C8.8357 15.7476 8.98419 15.827 9.14584 15.8591C9.30749 15.8913 9.47504 15.8748 9.62731 15.8117C9.77959 15.7486 9.90973 15.6418 10.0013 15.5048C10.0929 15.3678 10.1417 15.2066 10.1417 15.0418C10.1474 14.9289 10.13 14.8161 10.0907 14.7101C10.0513 14.6041 9.99085 14.5073 9.9129 14.4254C9.83495 14.3436 9.74116 14.2785 9.63724 14.234C9.53332 14.1895 9.42144 14.1667 9.30841 14.1668V14.2085ZM4.30841 9.20849C4.14359 9.20849 3.98248 9.25736 3.84544 9.34893C3.7084 9.4405 3.60158 9.57065 3.53851 9.72292C3.47544 9.87519 3.45894 10.0427 3.49109 10.2044C3.52324 10.366 3.60261 10.5145 3.71916 10.6311C3.8357 10.7476 3.98419 10.827 4.14584 10.8591C4.30749 10.8913 4.47504 10.8748 4.62731 10.8117C4.77959 10.7486 4.90974 10.6418 5.0013 10.5048C5.09287 10.3678 5.14175 10.2066 5.14175 10.0418C5.1474 9.92893 5.13002 9.81607 5.09068 9.71011C5.05134 9.60415 4.99085 9.50729 4.9129 9.42544C4.83495 9.34359 4.74116 9.27846 4.63724 9.234C4.53332 9.18954 4.42144 9.16668 4.30841 9.16682V9.20849ZM9.30841 4.20849C9.14359 4.20849 8.98248 4.25736 8.84544 4.34893C8.7084 4.4405 8.60158 4.57065 8.53851 4.72292C8.47544 4.87519 8.45894 5.04275 8.49109 5.2044C8.52324 5.36605 8.60261 5.51453 8.71916 5.63108C8.8357 5.74762 8.98419 5.82699 9.14584 5.85914C9.30749 5.8913 9.47504 5.8748 9.62731 5.81172C9.77959 5.74865 9.90973 5.64184 10.0013 5.5048C10.0929 5.36776 10.1417 5.20664 10.1417 5.04182C10.1474 4.92893 10.13 4.81607 10.0907 4.71011C10.0513 4.60415 9.99085 4.50729 9.9129 4.42544C9.83495 4.34359 9.74116 4.27846 9.63724 4.234C9.53332 4.18954 9.42144 4.16668 9.30841 4.16682V4.20849ZM12.2584 5.91682C12.1414 6.03317 12.0615 6.18164 12.029 6.34343C11.9964 6.50522 12.0126 6.67303 12.0755 6.82559C12.1385 6.97815 12.2453 7.10859 12.3824 7.20038C12.5196 7.29216 12.6809 7.34116 12.8459 7.34116C13.0109 7.34116 13.1723 7.29216 13.3094 7.20038C13.4466 7.10859 13.5534 6.97815 13.6163 6.82559C13.6792 6.67303 13.6954 6.50522 13.6629 6.34343C13.6303 6.18164 13.5505 6.03317 13.4334 5.91682C13.2829 5.75595 13.0747 5.66126 12.8545 5.65345C12.6343 5.64564 12.42 5.72535 12.2584 5.87516V5.91682ZM17.5084 5.91682C16.7465 4.39374 15.5754 3.113 14.1264 2.21824C12.6774 1.32348 11.0078 0.850058 9.30475 0.851076C7.60174 0.852094 5.93268 1.32751 4.48473 2.224C3.03678 3.1205 1.86721 4.40263 1.10714 5.92662C0.347084 7.45062 0.0265947 9.15622 0.181615 10.8522C0.336636 12.5481 0.961037 14.1673 1.9848 15.5283C3.00856 16.8892 4.39121 17.9381 5.97769 18.5572C7.56418 19.1763 9.29177 19.3412 10.9667 19.0335C11.3879 18.9542 11.7891 18.7918 12.1468 18.5557C12.5045 18.3196 12.8116 18.0146 13.0501 17.6585C13.307 17.2713 13.4843 16.8369 13.5716 16.3804C13.6589 15.924 13.6544 15.4548 13.5584 15.0002C13.5059 14.7254 13.478 14.4465 13.4751 14.1668C13.4787 13.3593 13.717 12.5702 14.1608 11.8956C14.6046 11.221 15.235 10.6898 15.9751 10.3668C16.3741 10.1881 16.7323 9.92959 17.0276 9.60711C17.3228 9.28462 17.5489 8.90505 17.6917 8.49182C17.8362 8.06956 17.8945 7.62258 17.863 7.17739C17.8315 6.7322 17.7109 6.29787 17.5084 5.90016V5.91682ZM16.0917 7.95016C16.0206 8.14959 15.9102 8.33273 15.7671 8.48875C15.624 8.64477 15.451 8.77049 15.2584 8.85849C14.2334 9.31732 13.3626 10.0623 12.7506 11.0039C12.1386 11.9455 11.8115 13.0438 11.8084 14.1668C11.8096 14.5586 11.8487 14.9493 11.9251 15.3335C11.976 15.5683 11.9793 15.811 11.935 16.0471C11.8906 16.2833 11.7994 16.5081 11.6667 16.7085C11.5545 16.8838 11.4068 17.0337 11.2331 17.1485C11.0595 17.2634 10.8637 17.3406 10.6584 17.3752C10.2133 17.4588 9.76132 17.5007 9.30841 17.5002C8.30355 17.5006 7.30884 17.2992 6.38335 16.9078C5.45786 16.5164 4.62046 15.943 3.92088 15.2216C3.2213 14.5003 2.67381 13.6457 2.31092 12.7087C1.94804 11.7716 1.77715 10.7712 1.80841 9.76682C1.87309 7.89415 2.63258 6.11262 3.93894 4.76929C5.24529 3.42596 7.00494 2.61706 8.87508 2.50016H9.30008C10.6965 2.50051 12.0652 2.89073 13.2518 3.62688C14.4385 4.36303 15.3961 5.41586 16.0167 6.66682C16.2078 7.06264 16.2347 7.51789 16.0917 7.93349V7.95016ZM9.30841 9.16682C9.14359 9.16682 8.98248 9.2157 8.84544 9.30726C8.7084 9.39883 8.60158 9.52898 8.53851 9.68125C8.47544 9.83352 8.45894 10.0011 8.49109 10.1627C8.52324 10.3244 8.60261 10.4729 8.71916 10.5894C8.8357 10.706 8.98419 10.7853 9.14584 10.8175C9.30749 10.8496 9.47504 10.8331 9.62731 10.7701C9.77959 10.707 9.90973 10.6002 10.0013 10.4631C10.0929 10.3261 10.1417 10.165 10.1417 10.0002C10.1417 9.77914 10.0539 9.56718 9.89767 9.4109C9.74139 9.25462 9.52943 9.16682 9.30841 9.16682Z" fill="#83828E"/>
</svg>
