<svg width="16" height="16" viewBox="0 0 16 16" fill="none" xmlns="http://www.w3.org/2000/svg">
<path d="M5.33366 10.9999C5.2018 10.9999 5.07291 11.039 4.96328 11.1123C4.85365 11.1855 4.7682 11.2896 4.71774 11.4115C4.66728 11.5333 4.65408 11.6673 4.6798 11.7966C4.70553 11.926 4.76902 12.0448 4.86225 12.138C4.95549 12.2312 5.07428 12.2947 5.2036 12.3204C5.33292 12.3462 5.46696 12.333 5.58878 12.2825C5.7106 12.232 5.81472 12.1466 5.88797 12.037C5.96123 11.9273 6.00033 11.7984 6.00033 11.6666C6.00033 11.4898 5.93009 11.3202 5.80506 11.1952C5.68004 11.0702 5.51047 10.9999 5.33366 10.9999ZM8.00033 1.33325C5.33366 1.33325 2.66699 2.24659 2.66699 3.99992V11.9999C2.66699 13.7533 5.33366 14.6666 8.00033 14.6666C10.667 14.6666 13.3337 13.7533 13.3337 11.9999V3.99992C13.3337 2.24659 10.667 1.33325 8.00033 1.33325ZM12.0003 11.9999C12.0003 12.4733 10.4803 13.3333 8.00033 13.3333C5.52033 13.3333 4.00033 12.4733 4.00033 11.9999V9.81992C5.24837 10.4132 6.61892 10.7033 8.00033 10.6666C9.38173 10.7033 10.7523 10.4132 12.0003 9.81992V11.9999ZM12.0003 7.99992C12.0003 8.47325 10.4803 9.33325 8.00033 9.33325C5.52033 9.33325 4.00033 8.47325 4.00033 7.99992V5.81992C5.24837 6.41322 6.61892 6.70332 8.00033 6.66659C9.38173 6.70332 10.7523 6.41322 12.0003 5.81992V7.99992ZM8.00033 5.33325C5.52033 5.33325 4.00033 4.47325 4.00033 3.99992C4.00033 3.52659 5.52033 2.66659 8.00033 2.66659C10.4803 2.66659 12.0003 3.52659 12.0003 3.99992C12.0003 4.47325 10.4803 5.33325 8.00033 5.33325ZM5.33366 6.99992C5.2018 6.99992 5.07291 7.03902 4.96328 7.11227C4.85365 7.18553 4.7682 7.28965 4.71774 7.41146C4.66728 7.53328 4.65408 7.66733 4.6798 7.79665C4.70553 7.92597 4.76902 8.04475 4.86225 8.13799C4.95549 8.23123 5.07428 8.29472 5.2036 8.32044C5.33292 8.34617 5.46696 8.33296 5.58878 8.28251C5.7106 8.23205 5.81472 8.1466 5.88797 8.03697C5.96123 7.92733 6.00033 7.79844 6.00033 7.66659C6.00033 7.48977 5.93009 7.32021 5.80506 7.19518C5.68004 7.07016 5.51047 6.99992 5.33366 6.99992Z" fill="#312E43"/>
</svg>
