<svg width="48" height="48" viewBox="0 0 48 48" fill="none" xmlns="http://www.w3.org/2000/svg">
<path d="M20 28.5C19.8022 28.5 19.6089 28.5586 19.4444 28.6685C19.28 28.7784 19.1518 28.9346 19.0761 29.1173C19.0004 29.3 18.9806 29.5011 19.0192 29.6951C19.0578 29.8891 19.153 30.0673 19.2929 30.2071C19.4327 30.347 19.6109 30.4422 19.8049 30.4808C19.9989 30.5194 20.2 30.4996 20.3827 30.4239C20.5654 30.3482 20.7216 30.22 20.8315 30.0556C20.9414 29.8911 21 29.6978 21 29.5C21 29.2348 20.8946 28.9804 20.7071 28.7929C20.5196 28.6054 20.2652 28.5 20 28.5ZM24 14C20 14 16 15.37 16 18V30C16 32.63 20 34 24 34C28 34 32 32.63 32 30V18C32 15.37 28 14 24 14ZM30 30C30 30.71 27.72 32 24 32C20.28 32 18 30.71 18 30V26.73C19.8721 27.62 21.9279 28.0551 24 28C26.0721 28.0551 28.1279 27.62 30 26.73V30ZM30 24C30 24.71 27.72 26 24 26C20.28 26 18 24.71 18 24V20.73C19.8721 21.62 21.9279 22.0551 24 22C26.0721 22.0551 28.1279 21.62 30 20.73V24ZM24 20C20.28 20 18 18.71 18 18C18 17.29 20.28 16 24 16C27.72 16 30 17.29 30 18C30 18.71 27.72 20 24 20ZM20 22.5C19.8022 22.5 19.6089 22.5586 19.4444 22.6685C19.28 22.7784 19.1518 22.9346 19.0761 23.1173C19.0004 23.3 18.9806 23.5011 19.0192 23.6951C19.0578 23.8891 19.153 24.0673 19.2929 24.2071C19.4327 24.347 19.6109 24.4422 19.8049 24.4808C19.9989 24.5194 20.2 24.4996 20.3827 24.4239C20.5654 24.3482 20.7216 24.22 20.8315 24.0556C20.9414 23.8911 21 23.6978 21 23.5C21 23.2348 20.8946 22.9804 20.7071 22.7929C20.5196 22.6054 20.2652 22.5 20 22.5Z" fill="#EAEAEC"/>
</svg>
