<svg width="20" height="20" viewBox="0 0 20 20" fill="none" xmlns="http://www.w3.org/2000/svg">
<path d="M17.4333 13.0165C17.3911 12.9155 17.3319 12.8225 17.2583 12.7415L14.7583 10.2415C14.6014 10.0846 14.3886 9.99643 14.1667 9.99643C13.9447 9.99643 13.7319 10.0846 13.575 10.2415C13.4181 10.3984 13.3299 10.6113 13.3299 10.8332C13.3299 11.0551 13.4181 11.2679 13.575 11.4248L14.6583 12.4998H10C9.77899 12.4998 9.56703 12.5876 9.41074 12.7439C9.25446 12.9002 9.16667 13.1122 9.16667 13.3332C9.16667 13.5542 9.25446 13.7661 9.41074 13.9224C9.56703 14.0787 9.77899 14.1665 10 14.1665H14.6583L13.575 15.2415C13.4969 15.319 13.4349 15.4111 13.3926 15.5127C13.3503 15.6142 13.3285 15.7232 13.3285 15.8332C13.3285 15.9432 13.3503 16.0521 13.3926 16.1537C13.4349 16.2552 13.4969 16.3474 13.575 16.4248C13.6525 16.5029 13.7446 16.5649 13.8462 16.6072C13.9477 16.6496 14.0567 16.6713 14.1667 16.6713C14.2767 16.6713 14.3856 16.6496 14.4871 16.6072C14.5887 16.5649 14.6809 16.5029 14.7583 16.4248L17.2583 13.9248C17.3355 13.8466 17.3952 13.7529 17.4333 13.6498C17.5167 13.447 17.5167 13.2194 17.4333 13.0165ZM11.6667 16.6665H5C4.77899 16.6665 4.56702 16.5787 4.41074 16.4224C4.25446 16.2661 4.16667 16.0542 4.16667 15.8332V4.1665C4.16667 3.94549 4.25446 3.73353 4.41074 3.57725C4.56702 3.42097 4.77899 3.33317 5 3.33317H9.16667V5.83317C9.16667 6.49621 9.43006 7.1321 9.8989 7.60094C10.3677 8.06978 11.0036 8.33317 11.6667 8.33317H15C15.1645 8.33235 15.3251 8.28285 15.4616 8.1909C15.598 8.09896 15.7042 7.96869 15.7667 7.8165C15.8305 7.66475 15.8479 7.49748 15.8168 7.33583C15.7856 7.17417 15.7073 7.02536 15.5917 6.90817L10.5917 1.90817C10.5228 1.84335 10.444 1.7899 10.3583 1.74984H10.2833L10.05 1.6665H5C4.33696 1.6665 3.70107 1.9299 3.23223 2.39874C2.76339 2.86758 2.5 3.50346 2.5 4.1665V15.8332C2.5 16.4962 2.76339 17.1321 3.23223 17.6009C3.70107 18.0698 4.33696 18.3332 5 18.3332H11.6667C11.8877 18.3332 12.0996 18.2454 12.2559 18.0891C12.4122 17.9328 12.5 17.7209 12.5 17.4998C12.5 17.2788 12.4122 17.0669 12.2559 16.9106C12.0996 16.7543 11.8877 16.6665 11.6667 16.6665ZM10.8333 4.50817L12.9917 6.6665H11.6667C11.4457 6.6665 11.2337 6.57871 11.0774 6.42243C10.9211 6.26615 10.8333 6.05418 10.8333 5.83317V4.50817Z" fill="#83828E"/>
</svg>
