<svg width="20" height="20" viewBox="0 0 20 20" fill="none" xmlns="http://www.w3.org/2000/svg">
<path d="M9.16667 16.6665H5C4.77899 16.6665 4.56702 16.5787 4.41074 16.4224C4.25446 16.2661 4.16667 16.0542 4.16667 15.8332V4.1665C4.16667 3.94549 4.25446 3.73353 4.41074 3.57725C4.56702 3.42097 4.77899 3.33317 5 3.33317H9.16667V5.83317C9.16667 6.49621 9.43006 7.1321 9.8989 7.60094C10.3677 8.06978 11.0036 8.33317 11.6667 8.33317H14.1667V9.99984C14.1667 10.2209 14.2545 10.4328 14.4107 10.5891C14.567 10.7454 14.779 10.8332 15 10.8332C15.221 10.8332 15.433 10.7454 15.5893 10.5891C15.7455 10.4328 15.8333 10.2209 15.8333 9.99984V7.49984C15.8333 7.49984 15.8333 7.49984 15.8333 7.44984C15.8247 7.37328 15.8079 7.29786 15.7833 7.22484V7.14984C15.7414 7.06267 15.6882 6.98141 15.625 6.90817L10.625 1.90817C10.5518 1.845 10.4705 1.79176 10.3833 1.74984C10.3585 1.7463 10.3332 1.7463 10.3083 1.74984L10.05 1.6665H5C4.33696 1.6665 3.70107 1.9299 3.23223 2.39874C2.76339 2.86758 2.5 3.50346 2.5 4.1665V15.8332C2.5 16.4962 2.76339 17.1321 3.23223 17.6009C3.70107 18.0698 4.33696 18.3332 5 18.3332H9.16667C9.38768 18.3332 9.59964 18.2454 9.75592 18.0891C9.9122 17.9328 10 17.7209 10 17.4998C10 17.2788 9.9122 17.0669 9.75592 16.9106C9.59964 16.7543 9.38768 16.6665 9.16667 16.6665ZM10.8333 4.50817L12.9917 6.6665H11.6667C11.4457 6.6665 11.2337 6.57871 11.0774 6.42243C10.9211 6.26615 10.8333 6.05418 10.8333 5.83317V4.50817ZM15.8333 12.4998H11.175L12.2583 11.4248C12.4153 11.2679 12.5034 11.0551 12.5034 10.8332C12.5034 10.6113 12.4153 10.3984 12.2583 10.2415C12.1014 10.0846 11.8886 9.99643 11.6667 9.99643C11.4447 9.99643 11.2319 10.0846 11.075 10.2415L8.575 12.7415C8.50139 12.8225 8.4422 12.9155 8.4 13.0165C8.31665 13.2194 8.31665 13.447 8.4 13.6498C8.43818 13.7529 8.49783 13.8466 8.575 13.9248L11.075 16.4248C11.1525 16.5029 11.2446 16.5649 11.3462 16.6072C11.4477 16.6496 11.5567 16.6713 11.6667 16.6713C11.7767 16.6713 11.8856 16.6496 11.9871 16.6072C12.0887 16.5649 12.1809 16.5029 12.2583 16.4248C12.3364 16.3474 12.3984 16.2552 12.4407 16.1537C12.483 16.0521 12.5048 15.9432 12.5048 15.8332C12.5048 15.7232 12.483 15.6142 12.4407 15.5127C12.3984 15.4111 12.3364 15.319 12.2583 15.2415L11.175 14.1665H15.8333C16.0543 14.1665 16.2663 14.0787 16.4226 13.9224C16.5789 13.7661 16.6667 13.5542 16.6667 13.3332C16.6667 13.1122 16.5789 12.9002 16.4226 12.7439C16.2663 12.5876 16.0543 12.4998 15.8333 12.4998Z" fill="#83828E"/>
</svg>
