<svg width="48" height="48" viewBox="0 0 48 48" fill="none" xmlns="http://www.w3.org/2000/svg">
<path d="M17 24C17 24.2652 17.1054 24.5196 17.2929 24.7071C17.4804 24.8946 17.7348 25 18 25H25.59L23.29 27.29C23.1963 27.383 23.1219 27.4936 23.0711 27.6154C23.0203 27.7373 22.9942 27.868 22.9942 28C22.9942 28.132 23.0203 28.2627 23.0711 28.3846C23.1219 28.5064 23.1963 28.617 23.29 28.71C23.383 28.8037 23.4936 28.8781 23.6154 28.9289C23.7373 28.9797 23.868 29.0058 24 29.0058C24.132 29.0058 24.2627 28.9797 24.3846 28.9289C24.5064 28.8781 24.617 28.8037 24.71 28.71L28.71 24.71C28.801 24.6149 28.8724 24.5028 28.92 24.38C29.02 24.1365 29.02 23.8635 28.92 23.62C28.8724 23.4972 28.801 23.3851 28.71 23.29L24.71 19.29C24.6168 19.1968 24.5061 19.1228 24.3842 19.0723C24.2624 19.0219 24.1319 18.9959 24 18.9959C23.8681 18.9959 23.7376 19.0219 23.6158 19.0723C23.4939 19.1228 23.3832 19.1968 23.29 19.29C23.1968 19.3832 23.1228 19.4939 23.0723 19.6158C23.0219 19.7376 22.9959 19.8681 22.9959 20C22.9959 20.1319 23.0219 20.2624 23.0723 20.3842C23.1228 20.5061 23.1968 20.6168 23.29 20.71L25.59 23H18C17.7348 23 17.4804 23.1054 17.2929 23.2929C17.1054 23.4804 17 23.7348 17 24ZM30 14H20C19.2044 14 18.4413 14.3161 17.8787 14.8787C17.3161 15.4413 17 16.2044 17 17V20C17 20.2652 17.1054 20.5196 17.2929 20.7071C17.4804 20.8946 17.7348 21 18 21C18.2652 21 18.5196 20.8946 18.7071 20.7071C18.8946 20.5196 19 20.2652 19 20V17C19 16.7348 19.1054 16.4804 19.2929 16.2929C19.4804 16.1054 19.7348 16 20 16H30C30.2652 16 30.5196 16.1054 30.7071 16.2929C30.8946 16.4804 31 16.7348 31 17V31C31 31.2652 30.8946 31.5196 30.7071 31.7071C30.5196 31.8946 30.2652 32 30 32H20C19.7348 32 19.4804 31.8946 19.2929 31.7071C19.1054 31.5196 19 31.2652 19 31V28C19 27.7348 18.8946 27.4804 18.7071 27.2929C18.5196 27.1054 18.2652 27 18 27C17.7348 27 17.4804 27.1054 17.2929 27.2929C17.1054 27.4804 17 27.7348 17 28V31C17 31.7956 17.3161 32.5587 17.8787 33.1213C18.4413 33.6839 19.2044 34 20 34H30C30.7956 34 31.5587 33.6839 32.1213 33.1213C32.6839 32.5587 33 31.7956 33 31V17C33 16.2044 32.6839 15.4413 32.1213 14.8787C31.5587 14.3161 30.7956 14 30 14Z" fill="#EAEAEC"/>
</svg>
