<?xml version="1.0" ?><svg viewBox="0 0 1000 1000" xmlns="http://www.w3.org/2000/svg"><path d="m838.36 704.78c2.53 37.53 14.46 76.24 32 116 3.91 8.85 8.92 17.18 13.92 25.46q16.21 26.84 34.77 52.14c5.23 7.14 10.74 14.48 12.6 23.13 1.41 6.48.1 14-4 18.9a2.56 2.56 0 0 0 2 4.13l12.21.27a11.36 11.36 0 0 0 5.44-.78c1.83-.94 3-2.79 4.06-4.54 4.77-7.87 15.16-11.66 19.94-19.52 1.83-3 3.72-6.23 3.67-9.76 0-3.08-6.27-9-7.62-11.79-12.5-25.81-19.11-45.45-27.62-78.93-5.45-21.43-22.69-41.07-30.74-61.66-10.17-26-6.67-55-7.85-82.9-.42-9.88-1.7-20.39-8-28"/><path d="m837.45 704.78c1.31 21.78 5.75 43.24 12 64.11 3.33 11.11 7.18 22.06 11.45 32.85s8.75 21.76 14.43 32a606.38 606.38 0 0 0 37.87 58.92c6.15 8.58 13.88 17.14 16.75 27.52a23.47 23.47 0 0 1 -.53 14.61 17.93 17.93 0 0 1 -1.58 3.16 15.41 15.41 0 0 0 -1.84 2.75 3.92 3.92 0 0 0 1.39 4.46c1.65 1.21 4.41.81 6.34.85l7.7.16a20.89 20.89 0 0 0 4.33-.2 8.83 8.83 0 0 0 5.53-3.91 47.54 47.54 0 0 1 3.8-5.24 44.77 44.77 0 0 1 4.93-4.4c3.46-2.75 7.18-5.28 10.1-8.64s5.75-8 6.12-12.53c.3-3.57-2.53-6.55-4.61-9.15a30.08 30.08 0 0 1 -3-4c-1.11-2-2-4.14-3-6.21a346.24 346.24 0 0 1 -18.88-51.28c-1.46-5.13-2.84-10.28-4.18-15.45a126.68 126.68 0 0 0 -4.46-15.16c-3.81-9.54-9.12-18.37-14.34-27.18s-10.57-17.7-14.06-27.37c-3.75-10.39-5.37-21.4-6-32.38-.69-11.13-.49-22.3-.54-33.44 0-10.37.27-21.26-2.55-31.33a34.2 34.2 0 0 0 -6.38-12.36c-1.18-1.45-3.22.61-2.05 2 6.14 7.56 7 18.18 7.37 27.52.44 11 .17 22 .31 32.93a185.34 185.34 0 0 0 2.72 32.08 103 103 0 0 0 10.3 29.13c4.72 9 10.25 17.45 15.2 26.28a136.66 136.66 0 0 1 6.71 13.36 102.09 102.09 0 0 1 4.63 14.45c4.72 18.16 10 36.18 17.07 53.57 1.64 4 3.37 8 5.16 12 .94 2.08 1.91 4.15 2.89 6.22a32.39 32.39 0 0 0 2.61 5c2 2.85 5 5.44 6.3 8.71.78 1.92-.18 4.35-1 6.1a29.06 29.06 0 0 1 -3.71 6.11c-5.41 6.61-13.83 10-18.46 17.4-1.3 2.07-2.57 4.1-5.17 4.55a20.1 20.1 0 0 1 -3.88.1l-7.72-.18c-1.07 0-5.45.54-5-1.6.2-.86 1.32-1.85 1.78-2.61a21.89 21.89 0 0 0 1.58-3.18 24.76 24.76 0 0 0 1.6-6.69c1-10.09-4.38-19.27-10-27.17-6.55-9.2-13.22-18.3-19.52-27.69s-12.48-19.07-18.39-28.82a249.75 249.75 0 0 1 -15.83-29.79q-6.93-16-12.78-32.44a326.92 326.92 0 0 1 -16-63.16q-1.08-7.68-1.67-15.4c-.09-1.17-1.9-1.19-1.83 0z"/><path d="m442 518.29a19.14 19.14 0 0 1 -4.39 13.71c-18 21.41-39.12 41.48-59.35 60.78a14.54 14.54 0 0 0 -5.57 10l-18.45 90.43c-1.12 5.45-2.48 11.33-6.77 14.87-5.29 4.36-13 3.57-19.77 2.55l-8.51-1.28c-2-.3-4.33-.82-5.23-2.64-1.16-2.36.87-5 2.84-6.74a66.85 66.85 0 0 1 10.06-7.33 5.51 5.51 0 0 0 2.07-1.75 5.28 5.28 0 0 0 .4-3c-1.36-22.54-1.6-45.15-.73-67.71.44-11.4 1.21-23 5.33-33.65a96.88 96.88 0 0 1 7.82-15.06 350.76 350.76 0 0 1 38-51.45"/><path d="m441.18 518.29a19.38 19.38 0 0 1 -2.18 9.91c-1.68 3.12-4.36 5.72-6.7 8.35q-7.64 8.58-15.66 16.82c-10.64 10.94-21.64 21.51-32.64 32.01-2.75 2.62-5.61 5.16-8.26 7.88a16.71 16.71 0 0 0 -4.38 8.79c-1.67 8-3.27 15.91-4.89 23.87q-4.83 23.7-9.65 47.42c-1.55 7.63-2.88 15.35-4.7 22.93a24.45 24.45 0 0 1 -3.37 8.41 12.43 12.43 0 0 1 -7.61 4.93c-6.52 1.49-13.69-.35-20.15-1.31-2.37-.36-7.35-.79-5.57-4.42a12.41 12.41 0 0 1 3.38-3.73q2.07-1.75 4.29-3.33c1.46-1 3-2 4.48-2.91s2.72-1.87 3.08-3.63a19 19 0 0 0 -.07-4.76c-.12-2.16-.23-4.31-.33-6.47q-.57-12.18-.71-24.39-.13-12 .15-23.91c.19-7.8.37-15.64 1.14-23.42a74.26 74.26 0 0 1 5.17-22.09c3-6.88 7.06-13.29 11.08-19.59a347.45 347.45 0 0 1 26.49-36.08c2.37-2.83 4.79-5.61 7.24-8.37 1.28-1.43-.83-3.56-2.12-2.11a352.12 352.12 0 0 0 -28.37 36.46c-4.31 6.35-8.47 12.82-12.29 19.47a72.67 72.67 0 0 0 -8.45 21.42 138.89 138.89 0 0 0 -2.38 22.93q-.51 12.54-.54 25.08t.37 24.9q.21 6.23.53 12.44c.1 2.07.23 4.14.34 6.22a4.2 4.2 0 0 1 -.2 2.25c-.45.8-1.59 1.25-2.34 1.71a69 69 0 0 0 -8.9 6.51c-2.29 2-5.13 5-4 8.31 1 3.1 4.49 3.69 7.3 4.11 3.66.56 7.32 1.18 11 1.63 6.23.75 13.19.7 18.13-3.75s6-11.62 7.28-17.8q5-24.56 10.06-49.12l5.05-24.68q1.24-6.1 2.47-12.22a44.39 44.39 0 0 1 1.25-5.39 11.76 11.76 0 0 1 2.91-4.41c5.4-5.52 11.15-10.71 16.68-16.08 5.71-5.54 11.39-11.1 16.94-16.78s10.89-11.32 16.15-17.16c2.66-2.95 5.26-5.95 7.83-9 2.24-2.67 4.57-5.25 5.9-8.52a20.71 20.71 0 0 0 1.37-9.35c-.07-1-1.64-1-1.61 0z"/><path d="m779.56 55.13h-17.56a28.05 28.05 0 0 1 28 28.05v406.55a28.05 28.05 0 0 1 -28 28h17.61a28.05 28.05 0 0 0 28.05-28v-406.55a28.05 28.05 0 0 0 -28.1-28.05z" fill="#18c4ff"/><path d="m779.56 52.76h-17.56c-3.05 0-3.06 4.71 0 4.75a26 26 0 0 1 25.63 25.69v3.87 401.61a26.56 26.56 0 0 1 -6.9 18.56 26 26 0 0 1 -18.73 8.16c-3.05 0-3.06 4.75 0 4.75h12.77c5.2 0 10.29 0 15.26-1.84a30.81 30.81 0 0 0 20-28.72c0-5.68 0-11.37 0-17v-381.68c0-2.33 0-4.65 0-7a30.43 30.43 0 0 0 -30.42-31.17c-3.06 0-3.06 4.71 0 4.75a26 26 0 0 1 25.67 25.72v4.42 399.73a32.3 32.3 0 0 1 -1.56 11.24 25.83 25.83 0 0 1 -14.95 15.13c-4.85 1.82-9.77 1.67-14.84 1.67h-11.93v4.75a30.74 30.74 0 0 0 30.17-26.62 52.47 52.47 0 0 0 .26-6.75v-403a30.46 30.46 0 0 0 -30.43-31v4.75h17.61c3.01-.02 3.01-4.77-.05-4.77z" fill="#18c4ff"/><path d="m264.78 515.4h-173.95c-12.46 0-24.93.14-37.38 0a26 26 0 0 1 -26.07-25.7c0-1.76 0-3.54 0-5.3v-399.07c0-6.87 1.52-13.47 6.15-18.83 5.25-6.08 12.62-9 20.53-9h16.8 689.14a31.1 31.1 0 0 1 10.57 1.5c10.73 3.79 17 14 17.06 25.1v25.29 372.34 7.54c-.09 13.33-10 25-23.54 26.05-8.07.65-16.38.08-24.47.08h-284.8c-3.06 0-3.07 4.75 0 4.75h288.65c9.71 0 21.45 1.42 30.55-2.51 11.36-4.9 18.23-16.11 18.36-28.34 0-2.48 0-5 0-7.45v-375.2c0-7.7.08-15.4 0-23.1-.2-18-14.53-30.79-32.11-30.79h-692.18c-4.9 0-9.8-.06-14.69 0a30.89 30.89 0 0 0 -27 15.8c-2.9 5.3-3.75 11-3.75 17v400.52a46.35 46.35 0 0 0 .8 10.57c3.19 13.94 15.89 23.34 29.95 23.5 12.48.14 25 0 37.46 0h174c3.06 0 3.06-4.75 0-4.75z"/><path d="m762 55.13h-708.95a28.05 28.05 0 0 0 -28.05 28.05v5.65h765v-5.65a28.05 28.05 0 0 0 -28-28.05z"/><g fill="#18c4ff"><circle cx="66.38" cy="71.98" r="4.55"/><circle cx="98.86" cy="71.98" r="4.55"/><circle cx="131.35" cy="71.98" r="4.55"/><path d="m608.63 456.76c-.26 9.61-.21 19.23-.27 28.84s-.22 19.24 0 28.84a1.1 1.1 0 0 0 2.2 0c.25-9.6.08-19.24 0-28.84s0-19.23-.26-28.84a.86.86 0 0 0 -1.71 0z"/><path d="m621.68 456.76c-.25 9.61-.21 19.23-.26 28.84s-.23 19.24 0 28.84a1.1 1.1 0 0 0 2.2 0c.24-9.6.07-19.24 0-28.84s0-19.23-.27-28.84a.86.86 0 0 0 -1.71 0z"/><path d="m634.74 456.76c-.26 9.61-.21 19.23-.27 28.84s-.23 19.24 0 28.84a1.1 1.1 0 0 0 2.2 0c.25-9.6.08-19.24 0-28.84s0-19.23-.27-28.84a.85.85 0 0 0 -1.7 0z"/></g><path d="m705.15 447.64h-57l2.38 2.38v-25.67l-2.38 2.37h57l-2.38-2.37v25.65c0 3.06 4.75 3.06 4.75 0v-25.65a2.41 2.41 0 0 0 -2.37-2.38h-57a2.41 2.41 0 0 0 -2.37 2.38v25.65a2.41 2.41 0 0 0 2.37 2.37h57c3.05.02 3.06-4.73 0-4.73z"/><path d="m734.7 442.68h-130.7a9.53 9.53 0 0 0 -9.53 9.53v7.79h149.77v-7.8a9.54 9.54 0 0 0 -9.54-9.52z" fill="#18c4ff"/><path d="m734.7 440.3h-125.4c-1.76 0-3.53 0-5.29 0a12.12 12.12 0 0 0 -10.33 5.9c-1.92 3.27-1.63 6.91-1.63 10.53v3.27a2.41 2.41 0 0 0 2.38 2.37h131.38c6.05 0 12.13.19 18.18 0h.25a2.41 2.41 0 0 0 2.37-2.37c0-2.82.19-5.69 0-8.49a12.09 12.09 0 0 0 -11.91-11.21c-3.05-.05-3.06 4.7 0 4.75a7.25 7.25 0 0 1 7.16 7.32v7.64l2.38-2.38h-143.74c-1.92 0-3.91-.15-5.82 0h-.25l2.37 2.37c0-2.55 0-5.09 0-7.64a7.24 7.24 0 0 1 6.81-7.31c1.51-.06 3 0 4.52 0h107.12c6.38 0 12.8.19 19.18 0h.27c3.06 0 3.06-4.75 0-4.75z" fill="#18c4ff"/><path d="m758.08 442.68h-38a9.54 9.54 0 0 1 9.54 9.53v7.79h38v-7.8a9.53 9.53 0 0 0 -9.54-9.52z"/><path d="m758.08 440.3h-38c-3.06 0-3.06 4.7 0 4.75a7.26 7.26 0 0 1 7.16 7.32v7.64a2.41 2.41 0 0 0 2.38 2.37h38a2.41 2.41 0 0 0 2.38-2.38c0-2.82.18-5.69 0-8.49a12.08 12.08 0 0 0 -11.88-11.22c-3.06-.05-3.06 4.7 0 4.75a7.26 7.26 0 0 1 7.16 7.32v7.64l2.37-2.38h-38l2.35 2.38c0-2.82.18-5.69 0-8.49a12.09 12.09 0 0 0 -11.89-11.22v4.75h38c3.02.01 3.03-4.74-.03-4.74z"/><path d="m594.43 506.85v33.15a9.53 9.53 0 0 0 9.53 9.53h130.74a9.53 9.53 0 0 0 9.54-9.53v-33.15z" fill="#18c4ff"/><path d="m592.05 506.85v22.91 9.94a12.1 12.1 0 0 0 11.95 12.23h9 121.11a12.36 12.36 0 0 0 10.53-5.35c2.21-3.24 2-7 2-10.67v-29.06a2.4 2.4 0 0 0 -2.37-2.38h-131.42c-6 0-12.13-.19-18.17 0h-.25c-3.06 0-3.07 4.75 0 4.75h143.74c1.92 0 3.9.15 5.82 0h.25l-2.38-2.37v32.64c0 4.17-2.86 7.63-7.19 7.69-3.23 0-6.45 0-9.67 0h-120.17c-2.62 0-5.1-.73-6.7-3-1.78-2.5-1.33-5.81-1.33-8.72v-28.61c0-3.06-4.75-3.06-4.75 0z" fill="#18c4ff"/><path d="m729.59 506.85v33.15a9.53 9.53 0 0 1 -9.54 9.53h38a9.53 9.53 0 0 0 9.53-9.53v-33.15z"/><path d="m727.21 506.85v32.7c0 4.14-2.88 7.55-7.16 7.63-3 .05-3.06 4.75 0 4.75h34.81a33.84 33.84 0 0 0 5.23-.18 12 12 0 0 0 9.91-11.75c.08-5.11 0-10.23 0-15.34v-17.81a2.41 2.41 0 0 0 -2.38-2.38h-38c-3.06 0-3.07 4.75 0 4.75h38l-2.37-2.37v32.49c0 3.08-1.3 5.94-4.27 7.24-1.68.74-3.5.6-5.29.6h-35.64v4.75a12.08 12.08 0 0 0 11.89-11.21c.12-1.77 0-3.57 0-5.34v-28.53c.06-3.06-4.73-3.06-4.73 0z"/><path d="m737.94 456.76c-.26 9.61-.21 19.23-.27 28.84s-.23 19.24 0 28.84a1.1 1.1 0 0 0 2.2 0c.25-9.6.08-19.24 0-28.84s0-19.23-.26-28.84a.86.86 0 0 0 -1.71 0z"/><path d="m751 456.76c-.25 9.61-.21 19.23-.26 28.84s-.23 19.24 0 28.84a1.1 1.1 0 0 0 2.2 0c.24-9.6.07-19.24 0-28.84s0-19.23-.27-28.84a.86.86 0 0 0 -1.71 0z"/><path d="m764.05 456.76c-.26 9.61-.21 19.23-.27 28.84s-.23 19.24 0 28.84a1.1 1.1 0 0 0 2.2 0c.25-9.6.07-19.24 0-28.84s0-19.23-.27-28.84a.85.85 0 0 0 -1.7 0z"/><g fill="#18c4ff"><path d="m335.27 492.85-28.16 12.21c-14.5 6.29-29.16 12.67-41.75 22.23-7.53 5.72-14.45 12.86-17.4 21.84-3.49 10.6-1 22.16 2 32.91a348.83 348.83 0 0 0 32.04 77.48c2.43 4.33 5 9.48 3 14-.9 2-2.71 3.93-2.27 6.1.63 3 4.81 3.46 7.87 2.94a67.47 67.47 0 0 0 23.1-8.5c2.36-1.4 4.8-3.16 5.6-5.78s-.19-5.36-1.13-7.9a239.59 239.59 0 0 1 -14.49-73.32c-.36-9.2-.62-19.52-7.27-25.89-1 1.31 0 3.32 1.53 4a8.16 8.16 0 0 0 4.82 0 379 379 0 0 0 96.39-33.51"/><path d="m335 491.93c-13.37 5.62-26.78 11.17-40 17.1-12 5.39-24 11.47-34.1 20a50.48 50.48 0 0 0 -11.69 13.53 36.51 36.51 0 0 0 -4.56 18.64c.11 7.07 1.73 14 3.61 20.83s3.9 13.29 6.14 19.84a342.7 342.7 0 0 0 15.77 38.39q4.53 9.35 9.62 18.41c1.64 2.94 3.48 5.88 4.23 9.2a8.29 8.29 0 0 1 -.1 4.5c-.49 1.48-1.5 2.71-2.11 4.14a5.05 5.05 0 0 0 1.69 6.49c2 1.29 4.63 1.34 6.9 1a64.34 64.34 0 0 0 18.87-5.95c5-2.43 12.19-5.78 11.74-12.43-.23-3.48-1.9-6.83-3-10.09s-2.19-6.57-3.17-9.89a239.17 239.17 0 0 1 -8.42-41.89c-.73-6.82-1-13.64-1.36-20.49-.27-5.62-.77-11.4-3-16.62a20.94 20.94 0 0 0 -4.5-6.58 1.56 1.56 0 0 0 -2.42.31c-1.7 2.72.58 6 3.42 6.53a13 13 0 0 0 5.12-.35q2.83-.57 5.64-1.19 11.49-2.5 22.81-5.73a381 381 0 0 0 43.87-15.45q12.21-5.15 24-11.13c1.88-1 .23-3.77-1.65-2.82a379.36 379.36 0 0 1 -80.68 30q-5.82 1.44-11.68 2.68a34.09 34.09 0 0 1 -5.69 1.09c-.94 0-3.5-.55-2.57-2l-2.42.31c3.94 3.85 5.5 9.22 6.17 14.54.75 5.9.67 11.89 1.09 17.81a242 242 0 0 0 6.29 40.22q2.43 10 5.71 19.71c1 3.08 2.39 6.13 3.21 9.28a6.81 6.81 0 0 1 -.15 4.77 8.59 8.59 0 0 1 -2.75 3c-5 3.67-11.27 6.15-17.22 7.88a37 37 0 0 1 -8.88 1.85c-1.6.06-4.56-.12-4.69-2.26-.08-1.34 1-2.63 1.59-3.75a11.12 11.12 0 0 0 1.42-4.16c.35-3.09-.7-6.14-2-8.9s-3-5.57-4.47-8.35q-2.42-4.47-4.68-9a359.34 359.34 0 0 1 -15.95-36.95q-3.42-9.33-6.31-18.83a164.2 164.2 0 0 1 -4.95-19.25c-1.11-6.42-1.38-13.17.47-19.48a37.17 37.17 0 0 1 9.08-14.92c8.54-9 19.69-15.37 30.71-20.82 12.21-6 24.86-11.21 37.29-16.77l9.48-4.24c1-.43.26-2.16-.74-1.74z"/><path d="m709.67 198.47h-415.91c-5.57 0-11.29-.36-16.86 0-.24 0-.49 0-.73 0l2.37 2.38v-36.85l-2.37 2.38h415.91c5.57 0 11.29.36 16.86 0h.73l-2.37-2.38v36.89c0 3.05 4.75 3.06 4.75 0v-36.89a2.41 2.41 0 0 0 -2.38-2.37h-415.91c-5.61 0-11.24-.11-16.86 0h-.73a2.41 2.41 0 0 0 -2.38 2.37v36.89a2.41 2.41 0 0 0 2.38 2.37h415.91c5.61 0 11.24.11 16.86 0h.73c3.06-.04 3.07-4.79 0-4.79z"/><path d="m309.24 202.37h-34.61l27.32-36.89h34.61z"/><path d="m371.17 202.37h-34.61l27.32-36.89h34.61z"/><path d="m433.1 202.37h-34.61l27.32-36.89h34.61z"/><path d="m495.02 202.37h-34.6l27.32-36.89h34.61z"/><path d="m556.95 202.37h-34.6l27.32-36.89h34.6z"/><path d="m618.88 202.37h-34.61l27.33-36.89h34.6z"/><path d="m680.81 202.37h-34.61l27.32-36.89h34.61z"/></g><path d="m174.6 137.63-52.73 91.37a10.34 10.34 0 0 0 9 15.52h105.42a10.34 10.34 0 0 0 9-15.52l-52.73-91.34a10.34 10.34 0 0 0 -17.96-.03z"/><g fill="#18c4ff"><path d="m167.24 127.71-58.05 100.55a7.28 7.28 0 0 0 6.3 10.92h116.11a7.28 7.28 0 0 0 6.3-10.92l-58.06-100.55a7.27 7.27 0 0 0 -12.6 0z"/><path d="m658.6 943.58-2.5-10.28-6.81-27.94-10-41-12.29-50.36-13.44-55.17-13.5-55.53-12.62-51.75-10.69-43.88-7.66-31.45c-1.21-5-2.33-10-3.64-14.92l-.15-.65a2.42 2.42 0 0 0 -2.3-1.75h-96.76a2.41 2.41 0 0 0 -2.29 3l2.51 10.27 6.81 28 10 41 12.27 50.36 13.46 55.15 13.52 55.5 12.61 51.76 10.69 43.88 7.67 31.45c1.21 5 2.31 10 3.63 14.92.06.21.11.43.16.65.72 3 5.31 1.71 4.58-1.26l-2.5-10.28-6.81-27.94-10-41-12.29-50.36-13.44-55.17-13.52-55.53-12.62-51.75-10.68-43.88-7.66-31.45c-1.21-5-2.16-10.05-3.64-14.92-.06-.22-.1-.44-.15-.65l-2.3 3h96.75l-2.29-1.74 2.5 10.27 6.81 28 10 41 12.27 50.36 13.45 55.17 13.52 55.5 12.61 51.76 10.69 43.88 7.67 31.45c1.21 5 2.31 10 3.63 14.92.06.21.11.43.16.65.72 3 5.31 1.71 4.58-1.26z"/><path d="m554 924.61h84.8c3.91 0 7.86.16 11.77 0h.16c3.06 0 3.06-4.75 0-4.75h-84.82c-3.91 0-7.86-.16-11.77 0h-.14c-3.05 0-3.06 4.75 0 4.75z"/><path d="m538.71 861.26h84.83c3.91 0 7.86.16 11.76 0h.17c3.06 0 3.06-4.75 0-4.75h-84.83c-3.91 0-7.86-.16-11.76 0h-.17c-3.06 0-3.06 4.75 0 4.75z"/><path d="m523.45 797.9h84.82c3.91 0 7.86.16 11.77 0h.17c3 0 3.06-4.75 0-4.75h-84.83c-3.91 0-7.86-.16-11.77 0h-.16c-3.06 0-3.07 4.75 0 4.75z"/><path d="m508.18 734.55h84.82c3.91 0 7.86.16 11.77 0h.16c3.06 0 3.07-4.76 0-4.76h-84.81c-3.91 0-7.86-.16-11.77 0h-.17c-3.05 0-3.06 4.76 0 4.76z"/><path d="m492.92 671.19h84.83c3.91 0 7.86.16 11.77 0h.16c3.06 0 3.06-4.75 0-4.75h-84.82c-3.92 0-7.86-.16-11.77 0h-.17c-3.06 0-3.06 4.75 0 4.75z"/><path d="m477.66 607.83h84.82c3.92 0 7.86.16 11.77 0h.17c3.06 0 3.06-4.75 0-4.75h-84.83c-3.91 0-7.86-.16-11.77 0h-.16c-3.06 0-3.06 4.75 0 4.75z"/></g><path d="m118.31 540.54h444.49v20.73h-444.49z"/><path d="m562.8 558.9h-426.45c-5.72 0-11.58-.38-17.29 0-.25 0-.5 0-.75 0l2.37 2.38v-20.74l-2.37 2.38h426.45c5.71 0 11.58.38 17.28 0h.76l-2.37-2.38v20.74c0 3.06 4.75 3.06 4.75 0v-20.74a2.41 2.41 0 0 0 -2.38-2.37h-426.45c-5.76 0-11.53-.11-17.29 0h-.75a2.41 2.41 0 0 0 -2.38 2.37v20.74a2.41 2.41 0 0 0 2.38 2.37h426.45c5.76 0 11.53.11 17.28 0h.76c3.06 0 3.06-4.75 0-4.75z"/><path d="m27.29 944.84 2.5-10.27 6.81-28 10-41 12.27-50.36 13.44-55.17 13.53-55.5 12.61-51.76 10.69-43.88 7.66-31.45c1.21-5 2.71-9.91 3.64-14.92 0-.22.1-.43.16-.65l-2.29 1.74h96.76l-2.29-3-2.51 10.27-6.81 28-10 41-12.26 50.36-13.45 55.17-13.52 55.5-12.61 51.76-10.69 43.88-7.67 31.44c-1.21 5-2.49 9.93-3.63 14.92 0 .21-.11.43-.16.65-.72 3 3.86 4.23 4.58 1.26l2.5-10.27 6.81-28 10-41 12.27-50.36 13.44-55.17 13.53-55.5 12.61-51.76 10.69-43.88 7.66-31.45c1.21-5 2.5-9.93 3.64-14.92.05-.22.1-.43.16-.65a2.41 2.41 0 0 0 -2.29-3h-96.76a2.41 2.41 0 0 0 -2.29 1.75l-2.51 10.27-6.81 28-10 41-12.26 50.36-13.44 55.17-13.52 55.5-12.62 51.76-10.69 43.88-7.67 31.44c-1.21 5-2.49 9.93-3.63 14.92-.05.21-.11.43-.16.65-.72 3 3.86 4.23 4.58 1.26z"/><path d="m127.34 919.86h-84.83c-3.91 0-7.86-.16-11.77 0h-.16c-3.06 0-3.06 4.75 0 4.75h84.82c3.92 0 7.86.16 11.77 0h.17c3.06 0 3.06-4.75 0-4.75z"/><path d="m142.6 856.51h-84.82c-3.92 0-7.86-.16-11.77 0h-.17c-3.06 0-3.06 4.75 0 4.75h84.83c3.91 0 7.86.16 11.77 0h.16c3.06 0 3.06-4.75 0-4.75z"/><path d="m157.86 793.15h-84.86c-3.91 0-7.86-.16-11.77 0h-.13c-3.05 0-3.06 4.75 0 4.75h84.83c3.91 0 7.86.16 11.77 0h.16c3.06 0 3.07-4.75 0-4.75z"/><path d="m173.13 729.79h-84.83c-3.91 0-7.86-.16-11.77 0h-.16c-3.06 0-3.06 4.76 0 4.76h84.82c3.91 0 7.86.16 11.77 0h.17c3.05 0 3.06-4.76 0-4.76z"/><path d="m188.39 666.44h-84.83c-3.91 0-7.86-.16-11.76 0h-.17c-3.06 0-3.06 4.75 0 4.75h84.83c3.91 0 7.86.16 11.76 0h.17c3.06 0 3.06-4.75 0-4.75z"/><path d="m203.65 603.08h-84.82c-3.91 0-7.86-.16-11.77 0h-.17c-3 0-3.06 4.75 0 4.75h84.83c3.91 0 7.86.16 11.77 0h.16c3.06 0 3.06-4.75 0-4.75z"/><path d="m463.15 540.54h99.65v20.73h-99.65z" fill="#18c4ff"/><path d="m562.8 558.9h-95.56c-1.29 0-2.63-.11-3.92 0h-.17l2.37 2.38v-20.74l-2.37 2.38h95.56c1.29 0 2.63.12 3.92 0h.17l-2.37-2.38v20.74c0 3.06 4.75 3.06 4.75 0v-20.74a2.41 2.41 0 0 0 -2.38-2.37h-87.4c-4 0-8.06-.16-12.08 0h-.17a2.42 2.42 0 0 0 -2.38 2.37v20.74a2.41 2.41 0 0 0 2.38 2.37h87.4c4 0 8.06.16 12.08 0h.17c3.06 0 3.06-4.75 0-4.75z" fill="#18c4ff"/><g fill="#fff"><path d="m168.7 202.62a64.75 64.75 0 0 1 -3.94-23.06 20.6 20.6 0 0 1 1.62-8.84c1.32-2.71 3.88-5 6.89-5.22a5 5 0 0 1 3.72 1.11 7.18 7.18 0 0 1 1.8 3.49c2.86 10.27 1.28 21.37-2.41 31.38a6.64 6.64 0 0 1 -1.14 2.21 3.75 3.75 0 0 1 -5.28.16"/><path d="m169.54 202.39a64.32 64.32 0 0 1 -3.54-17.19c-.32-5-.8-11.64 2.62-15.78 1.4-1.7 3.64-3.08 5.93-2.64 2.83.54 3.24 4.16 3.69 6.5a45.53 45.53 0 0 1 -.07 16.5 65.1 65.1 0 0 1 -2.35 9.21c-.41 1.23-.76 3.08-1.77 4a2.41 2.41 0 0 1 -3.11-.08c-1.3-1.19-3.25.74-1.94 1.94a5.18 5.18 0 0 0 7 .07 9.44 9.44 0 0 0 2-3.89q.9-2.56 1.61-5.19a52.5 52.5 0 0 0 1.6-20c-.38-3-.79-6.75-2.62-9.25-1.69-2.3-4.82-2.78-7.4-1.87-6.13 2.17-7.55 9.11-7.56 14.86a66.16 66.16 0 0 0 4.23 23.29c.38 1 2 .61 1.67-.46z"/><path d="m175.09 213.57c-3.78-2.36-6.39 4.71-5.71 7.45a5.38 5.38 0 0 0 5.38 4.1c6.31-.54 4.17-9.14 0-11.13"/><path d="m175.52 212.84a3.64 3.64 0 0 0 -3.49-.43 5.89 5.89 0 0 0 -2.62 2.65c-1.3 2.31-1.94 5.21-.74 7.68a6.48 6.48 0 0 0 8.72 3c2.35-1.24 3-4 2.56-6.39a9.09 9.09 0 0 0 -4.52-6.58 1.43 1.43 0 0 0 -1.91.5 1.4 1.4 0 0 0 .5 1.91l.53.29.3.2c.26.18-.07-.08.09.08a11.56 11.56 0 0 1 1 1c-.16-.18 0 0 .05.08l.18.27a6.71 6.71 0 0 1 .4.68c.11.2.21.4.3.61-.1-.22 0 0 0 .09s.09.24.13.37.14.46.2.69 0 .21.07.32.07.42 0 .25 0 .14 0 .19 0 .24 0 .37a5 5 0 0 1 0 .67s0 .19-.05.29a4.88 4.88 0 0 1 -.2.65c0 .07.11-.2 0 0l-.14.25c-.05.08-.1.16-.16.24s.17-.18 0 0a1.66 1.66 0 0 0 -.13.14l-.21.2c-.19.18 0 0 0 0s-.39.24-.59.34c.26-.13-.07 0-.15 0l-.34.1-.36.08h-.19a4.12 4.12 0 0 1 -4.11-2.94c0-.1-.06-.21-.09-.31s0-.22 0 0c0-.22 0-.45 0-.68s0-.43 0-.64 0 .13 0-.12 0-.27.08-.4a11.47 11.47 0 0 1 .4-1.53 6.21 6.21 0 0 1 1.54-2.55l.12-.1c-.09.07 0 0 0 0a2.37 2.37 0 0 1 .33-.22 2.08 2.08 0 0 0 .22-.12l.24-.07h.5a2.5 2.5 0 0 1 .64.23.84.84 0 0 0 .85-1.45z"/></g><path d="m437.11 481c6.43 16.67 17.46 44.87-5.22 54.35-6 2.49-12.61 2.89-19.09 2.84-18.32-.19-36.48-.19-54.8-2.19-13.43-1.51-14.75-1.5-22.78-14.36-3.76-6-3.5-12.91-3.33-19.72.14-5.39-.95-11.82 3.82-15.66 2.68-2.16 6.36-2.5 9.79-2.72q44.61-2.92 89.37-1.68" fill="#18c4ff"/><path d="m436.32 481.2c2.24 6.69 4.8 13.26 6.4 20.15 1.56 6.7 2.51 14 .31 20.72-2.53 7.7-9.45 12-17.09 13.67-5.69 1.23-11.55 1-17.34 1-6.17-.06-12.35-.13-18.52-.28-11.82-.29-23.61-1-35.36-2.39-2.7-.32-5.71-.64-8.13-1.74a15 15 0 0 1 -5.7-5.06c-2.67-3.6-5.46-7.53-6.58-11.91-1.29-5.07-.75-10.29-.8-15.45 0-3.94-.46-8.74 2.55-11.8 1.76-1.79 4.25-2.45 6.68-2.75 2.89-.35 5.84-.44 8.75-.61q37.06-2.21 74.23-1.53l9.19.21c2 .06 2-3.06 0-3.12q-39.24-1.08-78.46 1c-3.22.17-6.45.36-9.67.57a34.54 34.54 0 0 0 -8 1.07c-4.95 1.53-7.67 5.56-8.27 10.55a54 54 0 0 0 -.17 6.73c0 2.69-.14 5.37-.07 8.06a35 35 0 0 0 1 8.09 26.49 26.49 0 0 0 3.41 7.38c2 3.08 4 6.37 6.68 8.86a15.56 15.56 0 0 0 7.23 3.63 102.65 102.65 0 0 0 12.36 1.6c6.56.65 13.14 1 19.72 1.29 6.41.24 12.82.33 19.23.38s12.68.31 19-.09c9.1-.58 18.95-3.37 24.18-11.43 4-6.15 4.13-13.88 3.09-20.9-1.11-7.55-3.68-14.81-6.43-21.9-.61-1.56-1.28-3.1-1.95-4.63-.37-.85-1.78-.24-1.49.63z" fill="#18c4ff"/><path d="m325.13 377c7.25 1.19 14.53 2.15 21.79 3.21 3.38.5 6.74 1.26 10.12 1.67a7.24 7.24 0 0 0 4.86-.79 5.34 5.34 0 0 0 1.6-1.61 11.89 11.89 0 0 1 1.56-2.51c1.35-1.18 3.75-.91 5.4-1 2.31-.06 4.61-.08 6.91-.08q6.92 0 13.82.45c2.29.15 4.59.33 6.88.55 1.07.1 2.13.21 3.2.33a10.25 10.25 0 0 1 3.17.55c1.31.61 1.38 2.27 1.5 3.53a11.91 11.91 0 0 0 .91 4.26 5.94 5.94 0 0 0 4.45 2.91c2.45.48 4.91.87 7.36 1.3 5.19.92 10.37 1.84 15.57 2.71 1.61.26 2.32-2.18.68-2.49-4.52-.85-9.06-1.65-13.59-2.46l-6.8-1.21c-1.55-.27-4.16-.29-5.13-1.74-.76-1.14-.67-2.76-.82-4.06a7.23 7.23 0 0 0 -1.37-4c-1.2-1.43-3-1.69-4.71-1.9q-3.44-.4-6.87-.69a190.35 190.35 0 0 0 -27.43-.6 8 8 0 0 0 -4.74 1.47c-1.34 1.11-1.61 3.33-3.15 4.14s-3.32.43-4.84.25-3.32-.43-5-.64c-8.31-1-16.62-2.05-24.89-3.29-1.09-.17-1.57 1.48-.47 1.67z"/><path d="m436.75 429.89c-.58 9.08-.54 18.23-.63 27.32q-.08 6.71-.07 13.41c0 4.6-.3 9.35.19 13.91a1.14 1.14 0 0 0 2.27 0c.35-4.58 0-9.31-.09-13.91s-.09-8.94-.1-13.41c0-9.1.27-18.22.11-27.32a.84.84 0 0 0 -1.68 0z"/><path d="m325.58 423.52a283.89 283.89 0 0 0 3.69 51.76c.8 4.86 1.74 9.71 2.91 14.5.38 1.54 2.68.88 2.36-.65-1.72-8.4-3.36-16.8-4.53-25.3s-1.95-17.15-2.4-25.76c-.25-4.85-.34-9.7-.33-14.55a.85.85 0 0 0 -1.7 0z"/><g fill="#18c4ff"><path d="m330.71 502.26-.9-19.18a5.34 5.34 0 0 1 3.58-5.33c11.35-3.8 23-9 28.21-19.73 2.5-5.18 3.16-11.06 4-16.78a7.93 7.93 0 0 1 1.36-4.05c1.4-1.68 3.83-1.84 6-1.87l30.49-.45a5.3 5.3 0 0 1 2.47.37 5 5 0 0 1 2 2.34c2.45 4.73 3.56 10.06 5.38 15.08s4.63 10 9.23 12.54c5.47 3 13.5 2.74 16 8.56a14.57 14.57 0 0 1 .89 4.2l4.86 43.46"/><path d="m331.55 502.26c-.08-3.24-.18-6.48-.28-9.72s-.46-6.58-.32-9.82a4.26 4.26 0 0 1 2.95-3.85c1.71-.59 3.45-1.14 5.15-1.79a69.67 69.67 0 0 0 9.81-4.53c6.22-3.55 11.63-8.56 14.46-15.25a49.86 49.86 0 0 0 3-12.4c.28-1.95.28-4.25 1.09-6.07s2.93-2.13 4.74-2.2c9.56-.34 19.16-.27 28.72-.41 1.1 0 2.24-.11 3.34 0 1.33.1 1.89.95 2.46 2.06a39.71 39.71 0 0 1 2.43 6.06c1.3 3.94 2.33 8 4 11.77a22.94 22.94 0 0 0 6.56 8.94c2.65 2.07 5.84 3 9 4 2.67.81 5.85 1.64 7.64 4a10.1 10.1 0 0 1 1.58 5.25c.26 2.39.51 4.77.77 7.16q1.57 14.44 3.21 28.89l.8 7.16c.21 1.88 3.18 1.9 3 0-1.11-10-2.21-20.09-3.36-30.13-.56-4.85-1-9.73-1.69-14.57a10.34 10.34 0 0 0 -5.4-8.25c-2.87-1.56-6.14-2.18-9.21-3.24a15.89 15.89 0 0 1 -8.39-6.54c-2.33-3.58-3.61-7.65-4.86-11.69-.66-2.13-1.32-4.26-2.13-6.33-.74-1.91-1.52-4.16-3-5.67s-3.72-1.45-5.8-1.42l-7.5.12-15.24.23c-2.39 0-4.78 0-7.16.12a9 9 0 0 0 -5.21 1.5 7.27 7.27 0 0 0 -2.41 4.95c-.34 2.19-.6 4.39-1 6.58a34.79 34.79 0 0 1 -4.08 12.4 28.63 28.63 0 0 1 -7.48 8.07 50.83 50.83 0 0 1 -9.62 5.48c-1.79.8-3.62 1.51-5.46 2.2a28.3 28.3 0 0 0 -5.09 2c-3.94 2.52-2.94 7.21-2.7 11.13.26 4.34.52 8.69.82 13l.06.88c.07 1.07 1.71 1.09 1.68 0z"/><path d="m369.14 446.78a362.1 362.1 0 0 1 -26.29-71.87l11.25 3.23a6.72 6.72 0 0 1 3.18 1.57 6.8 6.8 0 0 1 1.35 2.87 230.51 230.51 0 0 0 26.81 59.24"/><path d="m369.94 446.31a362.8 362.8 0 0 1 -21.4-55.51q-2.37-8.08-4.36-16.26l-1.69 1.7 8.42 2.48c1.25.36 2.54.68 3.77 1.11a3.46 3.46 0 0 1 2.36 2.56c1.59 5.1 3.11 10.2 4.93 15.23a227.73 227.73 0 0 0 13.03 29.38q4.26 8 9.12 15.65c1.07 1.68 3.75.13 2.67-1.56a233.27 233.27 0 0 1 -15.79-29.35q-3.39-7.56-6.27-15.35-1.41-3.83-2.67-7.71c-.85-2.59-1.48-5.29-2.46-7.83-1.15-3-3.68-3.7-6.52-4.5l-9.86-2.77a1.4 1.4 0 0 0 -1.7 1.7 366.46 366.46 0 0 0 19.57 56.53q3.44 7.8 7.25 15.44c.53 1.07 2.11.13 1.6-.94z"/><path d="m389.58 439.65a272.63 272.63 0 0 0 23.62-54.87l13.8 1.51a479.85 479.85 0 0 1 -26.77 58"/><path d="m390.3 440.08a261 261 0 0 0 19.82-42.21q2.33-6.31 4.34-12.74l-1.26.95 13.8 1.64-1.38-1.81c-6.1 15.37-12.69 30.49-20.22 45.22-2.12 4.15-4.33 8.24-6.52 12.35-.95 1.78 1.72 3.36 2.71 1.59a439.16 439.16 0 0 0 21.55-45.21c1.81-4.37 3.6-8.76 5.24-13.19.35-.95-.54-1.73-1.38-1.81l-13.76-1.39a1.31 1.31 0 0 0 -1.26 1 283.6 283.6 0 0 1 -23.09 54.8.84.84 0 0 0 1.45.85z"/></g><path d="m370.58 385.54a191.55 191.55 0 0 0 40.27 3.26c1.28 0 1.28-2 0-2a187.13 187.13 0 0 1 -39.85-2.89c-1.06-.19-1.52 1.42-.45 1.63z"/><path d="m323.64 374.7-12.13-2.79q-2.91-.66-5.83-1.28a15.58 15.58 0 0 0 -4.7-.58c-3.59.34-4.57 3.53-5.5 6.5a103.57 103.57 0 0 0 -4.75 33.45c0 1.86.14 3.73.28 5.59a17.5 17.5 0 0 0 .72 4.84c1.21 3.28 4.93 4 7.9 4.93a153.74 153.74 0 0 0 25.74 5.48c1.45.19 1.81-2.37.34-2.57a164.4 164.4 0 0 1 -20.73-4.2c-1.7-.46-3.4-.95-5.08-1.46a19.5 19.5 0 0 1 -4.32-1.55c-1.34-.82-1.58-2.16-1.73-3.61-.18-1.7-.29-3.41-.38-5.12a102.87 102.87 0 0 1 1.08-20.6q.78-5.08 2-10.07c.42-1.66.89-3.31 1.39-4.94.4-1.3.71-3.11 1.9-3.93 1.43-1 3.67-.28 5.2 0q2.93.58 5.87 1.13l12.27 2.26c1 .18 1.45-1.32.43-1.55z"/><path d="m437.36 453.48c4.68.81 8.09 4.41 11.88 6.95a19.17 19.17 0 0 0 13.07 2.64c5-.63 9.6-2.68 14-4.9 3.69-1.84 7.4-3.95 10.21-7 2.6-2.85 4.14-6.49 3.33-10.36a16.78 16.78 0 0 0 -3-6.15c-1.57-2.2-3.23-4.34-4.84-6.5-6.21-8.3-12.16-17-19.51-24.37a49.09 49.09 0 0 0 -12.65-9.48 43.58 43.58 0 0 0 -15.29-4.45c-1.85-.18-1.84 2.72 0 2.89a42.24 42.24 0 0 1 23.78 10.78c7.08 6.33 12.61 14.24 18.27 21.8 3 4 6.23 7.85 8.9 12a10.38 10.38 0 0 1 2 6 8.8 8.8 0 0 1 -1.7 4.67c-2.13 3.09-5.54 5.24-8.79 7a51.6 51.6 0 0 1 -12.89 5.25c-4.77 1.05-10.1.73-14.2-2.14-3.78-2.63-7.54-5.86-12.33-6.25-.95-.08-1.18 1.51-.23 1.67z"/><path d="m343.85 514.57q14.11.38 28.23.36c1.72 0 1.72-2.73 0-2.67q-14.11.48-28.23.53a.89.89 0 0 0 0 1.78z"/><path d="m411.54 515.59a84.78 84.78 0 0 1 24.19 3 1.31 1.31 0 0 0 .7-2.53 74.33 74.33 0 0 0 -24.89-2.22c-1.08.09-1.11 1.72 0 1.71z"/><path d="m367.82 437.36c-.1-.14-.14-.17 0-.37a.74.74 0 0 1 .5-.26 10.47 10.47 0 0 1 2.5 0l5.81.29c1.46.07 1.46-2.23 0-2.28-2.45-.07-4.91-.18-7.36-.2a3.48 3.48 0 0 0 -2.83 1 2.14 2.14 0 0 0 0 2.82c.67.73 2-.26 1.4-1.08z"/><path d="m398 436.3 6.34 1.29a1.09 1.09 0 0 0 1.31-.74 1.07 1.07 0 0 0 -.74-1.31l-6.45-.88a.87.87 0 0 0 -1.05.59.86.86 0 0 0 .59 1.05z"/><g fill="#18c4ff"><path d="m351.2 591.45c3.95 1.63 7.88 3.3 11.85 4.87a.91.91 0 0 0 1.1-.62.92.92 0 0 0 -.63-1.1c-3.94-1.62-7.92-3.14-11.89-4.7a.8.8 0 0 0 -.43 1.55z"/><path d="m355.44 585.72c4.24 1.66 8.41 3.48 12.52 5.43 1 .49 1.91-1 .89-1.51q-6.39-3-13-5.49c-1-.38-1.4 1.19-.44 1.57z"/><path d="m371.47 592.34a.8.8 0 0 0 0-1.59.8.8 0 0 0 0 1.59z"/><path d="m349.92 564.79c18.62.17 37.24.4 55.85.48a1.35 1.35 0 0 0 0-2.7c-18.61.08-37.23.31-55.85.48a.87.87 0 0 0 0 1.74z"/><path d="m316.61 706.67a103.7 103.7 0 0 1 15.93-3.52 22.53 22.53 0 0 1 14.57 3.05c1.11.67 2.1-1 1-1.73a22.76 22.76 0 0 0 -15.11-3.22 101.58 101.58 0 0 0 -16.85 3.87.8.8 0 0 0 .43 1.55z"/><path d="m329.24 669.34a37.35 37.35 0 0 1 14.17-.63 38 38 0 0 1 6.65 1.64c1.12.39 2.21.83 3.29 1.31.53.23 1 .47 1.56.72.25.13.51.25.76.39.51.3.29.4.53-.12a1.16 1.16 0 0 0 2 1.17c2.7-3.76-10.44-6.57-12.52-6.91a39.91 39.91 0 0 0 -16.88.83.83.83 0 0 0 .44 1.6z"/><path d="m329.88 691.34a.83.83 0 0 0 0-1.66.83.83 0 0 0 0 1.66z"/></g><path d="m276 645.06a66.89 66.89 0 0 0 19.17-2.82 65.28 65.28 0 0 0 8.81-3.58q2.12-1 4.14-2.25c1.18-.71 2.64-1.4 3-2.86.38-1.68-2.18-2.4-2.6-.71-.12.45-1 .84-1.33 1.08-.59.41-1.18.8-1.79 1.18a39 39 0 0 1 -3.73 2.09 54.06 54.06 0 0 1 -8.32 3.19 71.61 71.61 0 0 1 -17.35 2.87.91.91 0 0 0 0 1.81z"/><path d="m238.66 301c1.26 1.85 2.51 3.69 3.68 5.6v-1.12a10.85 10.85 0 0 0 -1.17 9.51 10.67 10.67 0 0 0 2.69 4.23c1.3 1.25 3 2.24 3.49 4.09s.19 4.22.16 6.22l-.09 7c0 4.57 0 9.14.1 13.71.29 8.82 1.08 17.77 3.36 26.31 1.92 7.15 5.27 14.2 11.59 18.43 3.76 2.52 8.16 3.88 12.42 5.27 5.09 1.66 10.16 3.47 15.3 4.93 1.76.5 2.41-2.08.75-2.69-4.18-1.54-8.46-2.81-12.69-4.18a83 83 0 0 1 -11.37-4.13c-6.83-3.37-10.59-9.58-12.74-16.68-4.94-16.35-4-34-4-50.82 0-2 0-4.05-1-5.78s-2.7-2.58-4-4a8.91 8.91 0 0 1 -.89-10.3 1.14 1.14 0 0 0 -.17-1.34c-1.35-1.68-2.62-3.41-3.9-5.15-.66-.89-2.16-.06-1.52.89z"/><path d="m259.81 288.85a22.39 22.39 0 0 1 3.73 11 1.22 1.22 0 0 0 1.19 1.18 1.19 1.19 0 0 0 1.19-1.18 22.54 22.54 0 0 0 -4.73-12c-.61-.78-1.93.24-1.38 1.07z"/><path d="m270 300.86c.32 7.13-4 13.43-4.32 20.49a33.62 33.62 0 0 0 1.63 10.89c1.12 3.88 2.42 7.71 3.64 11.56 1.15 3.64 2.26 7.3 3.53 10.91 1.11 3.18 2.22 6.82 4.27 9.54 1.61 2.14 4.31 3.14 6.75 4.05a61.33 61.33 0 0 0 6.49 2c5.07 1.3 10.44 2.64 15.69 2.83 1.58.05 1.58-2.4 0-2.45a65.27 65.27 0 0 1 -13.14-2.28c-2.27-.56-4.53-1.16-6.75-1.9a22.43 22.43 0 0 1 -5.92-2.61 8.66 8.66 0 0 1 -2.49-3.58c-.81-1.75-1.51-3.54-2.16-5.35-1.23-3.43-2.29-6.92-3.39-10.39-1.16-3.65-2.33-7.29-3.47-10.94a42.6 42.6 0 0 1 -2.36-10.89c-.32-7.55 4.35-14.3 3.83-21.88-.08-1.13-1.83-1.15-1.78 0z"/><path d="m251.22 289.76a21.51 21.51 0 0 1 2.86 6.77.94.94 0 1 0 1.81-.5 20.71 20.71 0 0 0 -3.26-7.09.84.84 0 0 0 -1.12-.29.81.81 0 0 0 -.29 1.11z"/><path d="m246.32 293.06-.52.86h-.16s-.22 0-.07 0h-.08s.1.09 0 0a.28.28 0 0 1 -.09-.1c0-.06 0-.07 0 0l.1.17c.06.11.13.22.2.33l.87 1.45c.57.95 1.13 1.9 1.72 2.85a1 1 0 1 0 1.66-1c-.78-1.25-1.58-2.5-2.37-3.75-.39-.61-.72-1.38-1.48-1.59a1.33 1.33 0 0 0 -1 .1 1 1 0 0 0 -.32 1.31.82.82 0 0 0 1 .34.84.84 0 0 0 .48-1z"/><path d="m414.52 331.73.64 12.61.33 6.18c.07 1.29.62 4.76-1.51 4.7a1.25 1.25 0 0 0 -1.22 1.23c-.44 4.27-.9 9-3.61 12.49a9.72 9.72 0 0 1 -4.42 3.33c-2 .65-4 .07-5.92.93-1.47.67-.19 2.85 1.28 2.18 1.06-.48 2.42-.16 3.56-.3a9.8 9.8 0 0 0 2.89-.85 12.58 12.58 0 0 0 4.78-4.06c2.91-3.93 3.42-9 3.89-13.72l-1.21 1.23c5.29.13 3.79-7.22 3.53-10.38-.43-5.19-.89-10.38-1.33-15.57-.09-1.05-1.72-1.08-1.66 0z"/><path d="m809.86 496.44q-3.89 7.05-7.77 14.1c-1.59 2.91-5.56 8.66-.63 10.65l-.86-1.51c-1.55 4.72-3.13 9.81-1.76 14.77a12.43 12.43 0 0 0 2.85 5.19 9.45 9.45 0 0 0 2.32 1.8c1 .54 2.16.79 2.92 1.67 1.07 1.22 2.85-.57 1.79-1.79-1.24-1.42-3.21-1.66-4.63-2.85a9.43 9.43 0 0 1 -2.84-4.68c-1.27-4.5.33-9.18 1.72-13.45a1.26 1.26 0 0 0 -.86-1.51c-1.76-.71.17-3.82.65-4.74q1.41-2.76 2.81-5.53l5.72-11.28c.48-.95-.91-1.78-1.43-.84z"/><path d="m416 328.55a41.55 41.55 0 0 1 -10.81 19.45c.74-2.3-2.44-3.76-3.93-1.86a11.57 11.57 0 0 0 -2 10.3 5.27 5.27 0 0 1 .44 2.9c-.37 1.26-1.76 1.87-3 2.37-9 3.71-15 11.33-18.71 20.28-4.06 9.67-6 20.63-15.61 26.57-5.2 3.19-10.91 3.33-16.81 3.28-10.54-.1-20.51 5.43-31.09 4.37-9-.9-16.87-7.28-20.31-15.52s-2.44-18.14 1.89-25.94c5.34-9.6 14.08-13.22 24.59-14.26 4.48-.45 9.34-1 13.34-3.19 3.8-2.13 6.24-5.9 9.4-8.78 4.14-3.76 9.46-4.78 14.36-7.24 4.57-2.28 5.8-7.82 8.36-11.8 3.54-5.52 9.92-8.71 16.37-9.86s13.07-.52 19.6.12c5.57.55 12.33 2 13.94 7.38"/><path d="m415.18 328.32a41.78 41.78 0 0 1 -10.77 18.93l1.84 1.06a3.22 3.22 0 0 0 -2.35-4.08c-2.4-.6-3.89 1.38-4.85 3.29a12.9 12.9 0 0 0 -1.28 7.7c.17 1.15 1.23 3 .6 4.06s-2.36 1.35-3.32 1.79c-9.63 4.33-15.64 13.31-19.37 22.85-3.58 9.15-6.47 20.2-16.42 24.45-5.66 2.41-11.68 1.38-17.61 2s-11.86 2.55-17.83 3.63c-5.49 1-11.17 1-16.28-1.49a24.65 24.65 0 0 1 -10.67-10.07c-5.45-9.72-3.58-23 3.67-31.32a25.06 25.06 0 0 1 11.55-7.35c5.11-1.61 10.42-1.61 15.64-2.64a22.11 22.11 0 0 0 8.08-3.1 34.54 34.54 0 0 0 6-5.62 24.27 24.27 0 0 1 6.42-5.31c2.48-1.32 5.16-2.23 7.74-3.32a14.69 14.69 0 0 0 6.18-4.21 31.59 31.59 0 0 0 3.51-6.17 21.24 21.24 0 0 1 4.15-6.18 22.19 22.19 0 0 1 6.73-4.42c5.7-2.46 12-2.69 18.15-2.34 3.06.17 6.16.39 9.2.83a22.72 22.72 0 0 1 6.57 1.79 7.59 7.59 0 0 1 4.22 4.4c.57 1.75 3.34 1 2.77-.76-1.52-4.69-6.17-6.78-10.67-7.69a75.64 75.64 0 0 0 -8.49-1 78.79 78.79 0 0 0 -10.07-.38c-5.88.22-11.84 1.51-16.84 4.74a22.15 22.15 0 0 0 -5.93 5.57 51.83 51.83 0 0 0 -3.53 6.41 12.37 12.37 0 0 1 -4.3 5.26c-2.5 1.49-5.4 2.31-8.08 3.43a25.42 25.42 0 0 0 -7.22 4.35c-2.14 1.92-3.89 4.22-6 6.19-4.45 4.18-10.38 4.72-16.18 5.34a39.78 39.78 0 0 0 -14.22 3.92c-9.8 5.09-15.37 16.11-15.45 26.94-.09 11.11 6.25 21.69 16.56 26.14 5.46 2.35 11.27 2.41 17.06 1.44 6.19-1 12.18-3.24 18.45-3.78 3-.26 6 0 9-.26a27.62 27.62 0 0 0 8.76-1.92 24.59 24.59 0 0 0 11.53-10.55c2.59-4.42 4.15-9.35 5.88-14.14a52.44 52.44 0 0 1 7.12-14.06 30.75 30.75 0 0 1 12.17-9.76c2.39-1.05 4.48-2.4 3.85-5.36a20.14 20.14 0 0 1 -.87-4.19 10.61 10.61 0 0 1 .89-4.34c.37-.84 1-2.51 2.06-2.66a1.06 1.06 0 0 1 1.21 1.37 1.11 1.11 0 0 0 1.86 1.07 42.39 42.39 0 0 0 10.91-20c.25-1.1-1.41-1.57-1.69-.47z"/><path d="m415.21 331.75a197.47 197.47 0 0 1 -50.87-4c.84-4.8 1.72-9.73 4.2-13.93 3.16-5.37 8.74-9.08 14.75-10.71a38.39 38.39 0 0 1 18.51.08c5.93 1.35 12 4.08 15 9.38 2.45 4.33 2.62 10 6.31 13.37.81.72 1.81 1.38 2.07 2.44.42 1.7-1.43 3.17-3.16 3.45s-3.56-.12-5.25.37" fill="#18c4ff"/><path d="m415.21 330.93c-8.46-.06-16.89 0-25.32-.69a192.51 192.51 0 0 1 -25.19-3.76l.94 1.67c1.15-6.31 2.47-12.75 7.21-17.42a26 26 0 0 1 16.64-7.08 37.71 37.71 0 0 1 19 3.48 16.44 16.44 0 0 1 6.44 5.3c1.56 2.31 2.23 5 3.11 7.64a17.32 17.32 0 0 0 4.85 7.71c.38.35 1 .78.78 1.36s-1.14 1-1.72 1.18c-1.8.46-3.71.05-5.54.54s-1 3.17.77 2.77 3.75.08 5.59-.34a5.53 5.53 0 0 0 3.56-2.6c1.86-3.46-2.17-5.23-3.69-7.68-1.67-2.69-2.22-5.92-3.4-8.83a17.56 17.56 0 0 0 -5.6-7.4c-5.53-4.26-13.11-5.89-20-6.2-7.27-.33-14.69 1.41-20.53 5.9a22.9 22.9 0 0 0 -7 8.74 50 50 0 0 0 -3.11 12.21 1.38 1.38 0 0 0 1 1.67 203.59 203.59 0 0 0 25.42 3.5 143.55 143.55 0 0 0 25.81 0 .82.82 0 0 0 0-1.63z" fill="#18c4ff"/><path d="m487.35 447.4c4.85 3.83 10.9 5.14 16.93 5.7 7.27.69 14.65.62 21.94.86q11.67.36 23.34.79c6.83.26 13.87.15 20.62 1.36 6.12 1.09 14.74 4.51 14.88 11.94 0 1.16 1.93 1.53 2.11.29 1-6.52-5.41-11.2-10.81-13.22-6.12-2.28-12.9-2.31-19.35-2.58-16-.68-32-1-47.93-1.55-7.08-.25-14.72-.66-20.67-5-.8-.58-1.85.76-1.06 1.38z"/><path d="m453 462a104.47 104.47 0 0 0 9.74 8.58 73.73 73.73 0 0 0 8.92 6.17 55.27 55.27 0 0 0 19.72 6.71c18.74 2.7 37.3-1.81 55.68-4.93q3.87-.66 7.75-1.22c2.07-.29 4.86-1.16 6.81-.06 2.39 1.33 2.08 4.24 2.24 6.58.12 1.74 2.84 1.75 2.72 0-.14-2.1 0-4.48-1.1-6.36a6.72 6.72 0 0 0 -3.57-3c-1.92-.7-4-.23-5.92 0-9.55 1.28-19 3.27-28.47 4.84-16.76 2.77-35.35 4.47-51.19-3a69.87 69.87 0 0 1 -10.44-6.26c-4.06-2.89-7.75-6.21-11.63-9.34-.87-.7-2.08.42-1.26 1.26z"/><path d="m572.19 476.23a8.09 8.09 0 0 1 .14 5.81 1 1 0 0 0 .69 1.2 1 1 0 0 0 1.2-.68 10 10 0 0 0 -.43-7 .87.87 0 0 0 -1.1-.36.86.86 0 0 0 -.5 1z"/><path d="m578.05 471.79.22.24.1.12a3.67 3.67 0 0 1 .38.56 4.25 4.25 0 0 1 .29.56s.08.17 0 .07 0 .06 0 .07a2.79 2.79 0 0 1 .12.34 6.25 6.25 0 0 1 .16.62.89.89 0 0 1 .06.31c0-.06 0-.16 0 0s0 .1 0 .15a5.15 5.15 0 0 1 0 .68v.31a1 1 0 0 0 0 .16 1 1 0 1 0 2.06.28 7 7 0 0 0 -2.24-5.67.86.86 0 0 0 -1.21 1.21z"/><g fill="#fff"><path d="m367.32 319.85a157.67 157.67 0 0 0 52.68 1.15c1.35-.19.78-2.24-.56-2a163.78 163.78 0 0 1 -51.63-.89c-1.15-.21-1.65 1.53-.49 1.76z"/><path d="m373.45 319.46a27.7 27.7 0 0 1 3-8 33.86 33.86 0 0 1 5.19-6.73.93.93 0 0 0 -1.32-1.31 25.37 25.37 0 0 0 -5.42 7.13 29.57 29.57 0 0 0 -2.94 8.45c-.18 1 1.32 1.43 1.53.42z"/><path d="m385.15 317.17c2.24-5.53 4.83-11.5 10.7-13.95 1-.44.65-2.13-.48-1.74-6.56 2.25-9.52 9.32-11.86 15.24-.41 1 1.24 1.45 1.64.45z"/><path d="m366.55 456.94c15.47-2.21 31.05 1.31 46.57.44 1.32-.07 1.32-2.15 0-2.05-15.68 1.26-31.37-2.34-47 0-1.07.16-.62 1.77.44 1.62z"/><path d="m323.63 503a28.13 28.13 0 0 0 2.44 16.19c.54 1.1 2.15.14 1.65-1a28.13 28.13 0 0 1 -2.44-15c.11-.93-1.52-1.16-1.65-.23z"/></g><path d="m827.51 513.91a26.08 26.08 0 0 1 .75-18.53 52.43 52.43 0 0 1 -18.73.84 10.4 10.4 0 0 1 -4.56-1.36 4 4 0 0 1 -1.9-4.08c.39-1.55 2.49-2.55 3.73-1.54-2-.86-2.14-3.88-.75-5.54s3.69-2.22 5.85-2.42a27.46 27.46 0 0 1 18.82 5.29c3.28-1.41 7 .35 10.1 2.08 4 2.19 8.09 4.52 10.58 8.31 3.32 5.07 3 11.86.65 17.46s-6.41 10.26-10.41 14.81c-1.29 1.47-2.73 3-4.66 3.38-3.35.61-6.14-2.77-7.1-6a12.82 12.82 0 0 0 5.86-6 7.83 7.83 0 0 0 -1-8c-1.87-2.15-5.48-2.72-7.64-.88" fill="#18c4ff"/><path d="m828.37 513.67c-1.45-5.93-1.5-12 1-17.67a1.24 1.24 0 0 0 -1.38-1.8 52.05 52.05 0 0 1 -15.6 1c-2.13-.17-4.9-.18-6.71-1.47-.78-.56-1.65-1.71-1.25-2.72a1.18 1.18 0 0 1 1.75-.62l1.34-2.29a2.14 2.14 0 0 1 -.84-2.75c.51-1.44 2.09-2.1 3.46-2.43a22.2 22.2 0 0 1 9.93.22 26.54 26.54 0 0 1 9.34 4.12 2 2 0 0 0 2.11.47 6.81 6.81 0 0 1 2.49-.29 14.75 14.75 0 0 1 5.42 2c5.8 3.08 11.8 6.66 12.93 13.7 1.11 6.89-2.22 13.44-6.25 18.78-1.16 1.53-2.4 3-3.65 4.44a25 25 0 0 1 -4 4.22c-3.37 2.38-6.31-1.32-7.25-4.33l-.61 1.5c4.57-2.56 8.37-7.43 6.83-12.94-1.33-4.78-7.08-7.15-11.13-4-1.27 1 .53 2.79 1.79 1.78a4.22 4.22 0 0 1 4.58-.14 5.15 5.15 0 0 1 2.48 4.16c.36 4-2.66 7-5.89 8.85a1.33 1.33 0 0 0 -.61 1.49c1.4 4.49 5.93 9.12 10.83 6.14 2.29-1.4 4-3.82 5.72-5.83a65.11 65.11 0 0 0 5.44-7.18c2.9-4.57 4.87-9.87 4.58-15.35a17.6 17.6 0 0 0 -7.5-13.43 50.84 50.84 0 0 0 -8.1-4.81c-2.86-1.39-6.1-2.41-9.21-1.2l1 .13a28.68 28.68 0 0 0 -19.5-5.45c-2.79.28-6.09 1.11-7.48 3.83-1.14 2.25-.68 5.4 1.71 6.62a1.33 1.33 0 0 0 1.34-2.29c-2.21-1.51-5.32.17-5.74 2.69-.54 3.19 2.29 5.53 5.07 6.27a39.83 39.83 0 0 0 10.73.92 49.74 49.74 0 0 0 11.06-1.42l-1.51-1.5c-2.44 5.91-2.94 13.1-.43 19.09a.89.89 0 0 0 1.72-.48z" fill="#18c4ff"/><path d="m827.88 514a3.89 3.89 0 0 1 3.56-.69 4.14 4.14 0 0 1 2.84 2.51 5.47 5.47 0 0 1 -.13 4.13 6.3 6.3 0 0 1 -3.21 3.08 7.92 7.92 0 0 1 -2.38.68 8.2 8.2 0 0 1 -1.31.05 1 1 0 0 1 -.42-.08c-.16 0-.07 0 0 0-.26 0 0 0 .07.15a1.34 1.34 0 0 0 -1.6-.91 1.31 1.31 0 0 0 -.91 1.6c.86 2.42 4.14 2 6.1 1.41a9.3 9.3 0 0 0 5.33-3.83 8 8 0 0 0 1-6.25 6.16 6.16 0 0 0 -4.06-4.27 5.84 5.84 0 0 0 -6 1.28c-.75.76.37 1.84 1.15 1.15z"/><path d="m827.83 519.06 1.84-.88a.87.87 0 0 0 .39-.51.84.84 0 0 0 -.06-.67.85.85 0 0 0 -.5-.39 1 1 0 0 0 -.65.08l-1.81.93a.8.8 0 0 0 -.37.49.81.81 0 0 0 .08.63.8.8 0 0 0 .49.37.84.84 0 0 0 .62-.08z"/><path d="m811.54 504.18a13.14 13.14 0 0 1 2.05.63h-.05l.14.06.26.12.45.22 1 .51a1 1 0 0 0 1-1.64 8.76 8.76 0 0 0 -2.21-1 13.49 13.49 0 0 0 -2.35-.51.82.82 0 0 0 -.22 1.61z"/><path d="m811.2 509.25h-.25a1.07 1.07 0 0 0 -.4.23v.05l-.09.1a2.25 2.25 0 0 0 -.3.39 1.34 1.34 0 0 0 -.13.23 4.14 4.14 0 0 0 -.19.49 1 1 0 0 0 .26 1 1 1 0 0 0 .45.26 1 1 0 0 0 .54 0 1.92 1.92 0 0 0 .33-.14 3.4 3.4 0 0 0 .28-.21 1.23 1.23 0 0 0 .29-.35 1.78 1.78 0 0 0 .18-.43 1.88 1.88 0 0 0 0-.47 1.21 1.21 0 0 0 -.31-.76 1 1 0 0 0 -.34-.22 1 1 0 0 0 -.41-.09h-.29a1.11 1.11 0 0 0 -.47.27l-.16.22a1 1 0 0 0 -.15.54.38.38 0 0 1 0 .15v-.28a.55.55 0 0 1 -.05.17l.11-.25a1.32 1.32 0 0 1 -.12.2l.16-.21a.52.52 0 0 1 -.11.1l.21-.16 1.53.88a1.36 1.36 0 0 1 0-.2v.26a1.62 1.62 0 0 1 .12-.43l-.1.22.09-.17a.41.41 0 0 1 0-.09.87.87 0 0 0 .15-.5.66.66 0 0 0 -.08-.34.64.64 0 0 0 -.18-.28.87.87 0 0 0 -.62-.26z"/><path d="m808 526.34a6.17 6.17 0 0 0 3.74-1.32.83.83 0 0 0 .06-1.12.84.84 0 0 0 -1.1-.22c-.22.15-.44.3-.67.43l-.39.2h-.09.05s-.13 0-.17.07a5 5 0 0 1 -.78.22c-.12 0-.28 0-.39.07.13 0 .15 0 .06 0h-.11-.21a.82.82 0 1 0 0 1.63z"/><path d="m807.26 542.07a42.06 42.06 0 0 1 2.18 5c.29.85.55 1.72.77 2.6.11.43.2.86.3 1.28a.94.94 0 0 1 0 .42c0-.08 0-.06 0 .08s0 .15.05-.09c-.72.69 0 2.18 1 1.78 1.19-.48 1.35-1.56 1.07-2.69a27.36 27.36 0 0 0 -1-3.23 25.21 25.21 0 0 0 -3-6 .82.82 0 0 0 -1.41.82z"/><path d="m810.53 553.89c0-1 1.06-1.32 1.82-1.72s1.6-.8 2.41-1.18c1.67-.77 3.36-1.5 5.08-2.17 3.44-1.35 6.95-2.52 10.49-3.6a87.79 87.79 0 0 1 10.79-2.94c1.55-.26 4.27-.79 5.6.31s1.82 3.35 2.45 4.95c.46 1.17 2.5 1.17 2.4-.33a11.15 11.15 0 0 0 -2.32-5.79c-1.34-1.77-3.32-2.11-5.42-2.07-4.63.1-9.17 1.8-13.55 3.14a108.92 108.92 0 0 0 -12.65 4.51 48.66 48.66 0 0 0 -5.92 3.16c-1.46.93-3.1 1.72-2.83 3.69.13 1 1.7 1.1 1.65 0z"/><path d="m815 552.24c-9.43 1.21-18.24 4.33-26.8 8.38-4.45 2.11-8.78 4.44-13.08 6.85-3.56 2-7.63 3.87-10.18 7.18-2.71 3.51-2.61 8-1.3 12.09a46.52 46.52 0 0 0 6.22 11.94 56.3 56.3 0 0 0 8.83 10.11c3.12 2.75 6.94 5.19 11.24 5.19a15.91 15.91 0 0 0 6.95-2c2.51-1.22 5-2.56 7.43-3.85 5.24-2.73 10.68-5.26 15.75-8.3 1.33-.8.17-2.63-1.18-2-4.37 1.92-8.57 4.3-12.81 6.49l-6.38 3.28a54.5 54.5 0 0 1 -6 2.91c-8.22 3-15.26-5.15-19.71-11a57.6 57.6 0 0 1 -6.48-10.72c-1.63-3.53-3-8.06-.87-11.67 1.94-3.26 5.92-5 9.1-6.81 3.81-2.16 7.65-4.28 11.53-6.29 8.78-4.54 18.16-8.6 28-10.16.91-.15.71-1.75-.22-1.63z"/><path d="m641.33 534.08c4.1 11.37 16.25 15.46 24.79 22.68 4.58 3.88 8.25 8.68 11.69 13.57s6.8 9.82 10.44 14.56a153.82 153.82 0 0 0 24.75 26.11 70.91 70.91 0 0 0 15 9.86 45.85 45.85 0 0 0 17.85 4.14c6.93.2 13.7-1.31 20.3-3.29a81.52 81.52 0 0 0 19.85-8.52 1.51 1.51 0 0 0 -1.52-2.61 118.86 118.86 0 0 1 -17.25 7.42 70.24 70.24 0 0 1 -17.52 3.69 43.84 43.84 0 0 1 -17.37-2.51 58.48 58.48 0 0 1 -15.19-8.87 150.28 150.28 0 0 1 -24.6-24.54c-3.71-4.57-7.18-9.32-10.6-14.11a105.76 105.76 0 0 0 -10.72-13.34c-4.63-4.64-10.22-7.8-15.68-11.34-5.15-3.34-10.3-7.44-12.58-13.35-.39-1-2-.58-1.64.46z"/><path d="m644 524.77a20.37 20.37 0 0 0 6.94 9.42 1 1 0 0 0 1.39-.36 1 1 0 0 0 -.36-1.39 18.82 18.82 0 0 1 -6.3-8.13.89.89 0 0 0 -1.07-.6.87.87 0 0 0 -.6 1.06z"/><path d="m650.61 518.94a15.28 15.28 0 0 0 6.8 9.23c1.08.67 2.08-1 1-1.71a14.08 14.08 0 0 1 -6.11-8 .88.88 0 0 0 -1.69.47z"/><path d="m659.57 516.55a35.22 35.22 0 0 0 9.21 8 1.09 1.09 0 0 0 1.1-1.88 40.91 40.91 0 0 1 -9.14-7.28.83.83 0 1 0 -1.17 1.17z"/><path d="m674.5 518.78a31.45 31.45 0 0 1 6.7 8.31c1.85 3.3 2.54 6.86 3.87 10.34 1.41 3.66 4 6.16 6.79 8.78s5.9 5.36 9 7.91a206.44 206.44 0 0 0 19.14 14.12c7.13 4.63 14.49 8.92 21.78 13.31 1.86 1.13 3.81 2.65 5.92 3.27a8.66 8.66 0 0 0 5.81-.66c2.09-.88 4-2.06 6-3.12 2.2-1.18 4.41-2.32 6.58-3.56 1.39-.79.16-2.86-1.25-2.13-3.66 1.88-7.19 4-10.84 5.89-1.64.84-3.59 1.75-5.48 1.28s-3.54-1.88-5.12-2.83c-7-4.24-14.07-8.38-21-12.81a200.79 200.79 0 0 1 -19-13.81q-4.44-3.66-8.67-7.55c-2.74-2.53-5.8-5-7.22-8.56s-2.31-7.41-4.31-10.85a30.37 30.37 0 0 0 -7.54-8.58c-.88-.7-2.14.49-1.26 1.25z"/><path d="m594.43 478.93h170.47v9.86h-170.47z"/><path d="m764.9 486.42h-163.57c-2.19 0-4.44-.16-6.63 0h-.27l2.37 2.37v-9.86l-2.37 2.37h163.57c2.19 0 4.45.16 6.63 0h.28l-2.38-2.37v9.86c0 3.06 4.75 3.06 4.75 0v-9.86a2.4 2.4 0 0 0 -2.37-2.38h-149.54c-6.88 0-13.79-.2-20.67 0h-.27a2.41 2.41 0 0 0 -2.38 2.38v9.86a2.42 2.42 0 0 0 2.38 2.38h149.57c6.88 0 13.79.2 20.66 0h.28c3.06 0 3.06-4.75-.04-4.75z"/><rect height="9.81" rx="1.54" stroke="#000" stroke-miterlimit="10" stroke-width="1.58" width="9.81" x="618.73" y="503.39"/><rect height="9.81" rx="1.54" stroke="#000" stroke-miterlimit="10" stroke-width="1.58" width="9.81" x="689.01" y="503.39"/><path d="m558.71 476.62a27.61 27.61 0 0 0 -7.05 5.32l-7 6.56c-2 1.9-4.22 4.25-3.86 7a5.83 5.83 0 0 0 3.25 4.2 14.92 14.92 0 0 0 5.32 1.36 3.25 3.25 0 0 0 3.92-1.85l9.7-14.53a8.86 8.86 0 0 0 1.5-3 4.71 4.71 0 0 0 -4.5-5.46"/><path d="m558.47 475.75a23.1 23.1 0 0 0 -6.4 4.2c-2.22 2-4.41 4-6.57 6-3.27 3.05-8.23 7.4-5.08 12.28a9.34 9.34 0 0 0 6.07 3.77c2.34.51 5.25 1.12 7.06-.85a25.21 25.21 0 0 0 2.27-3.25l2.7-4 5.11-7.67c1.53-2.29 3-4.65 1.86-7.44a5.61 5.61 0 0 0 -5.82-3.68 1.24 1.24 0 0 0 0 2.37c1.61.31 3.11 1.07 3.49 2.81.43 2-1.4 3.88-2.4 5.38l-8 11.91c-.52.77-1.07 2-2 2.22a8.76 8.76 0 0 1 -3.13-.3c-1.88-.36-3.9-1-5-2.75-2.29-3.63 3.15-7.46 5.38-9.57 3.51-3.32 6.83-7.38 11.13-9.72.87-.48.26-2-.7-1.65z"/><path d="m574.24 454.31a82 82 0 0 0 8.34-9.82c1.34-2 2.56-4.11 4.5-5.49s4.9-1.7 6.55 0 1.31 4.18.25 6.07-2.8 3.28-4.33 4.82a28 28 0 0 0 -5.09 7c-.32.63-.81 1.38-1.51 1.27a1.79 1.79 0 0 1 -.89-.61 11.5 11.5 0 0 0 -5.17-2.95"/><path d="m574.86 454.93a64.26 64.26 0 0 0 7.95-8.86c1.86-2.54 3.58-6.41 7-7a3 3 0 0 1 3.45 1.6 4.8 4.8 0 0 1 -.74 4.19 24.3 24.3 0 0 1 -3.68 3.91 29.74 29.74 0 0 0 -3.66 4.33 27.65 27.65 0 0 0 -1.66 2.71 7.55 7.55 0 0 0 -.65 1.08c.12-.42.37.23.09-.24a3.27 3.27 0 0 0 -.7-.64 10.28 10.28 0 0 0 -5.41-2.6 1.23 1.23 0 0 0 -.61 2.28c1 .45 2 .76 2.86 1.3a18.36 18.36 0 0 1 2.39 1.91 2.34 2.34 0 0 0 2.79.24 5.94 5.94 0 0 0 1.75-2.45 27.07 27.07 0 0 1 3.91-5.42 43.44 43.44 0 0 0 4.44-4.76c2-2.89 2.3-7.74-1.46-9.38s-7.48 1.19-9.61 4.19c-1.45 2-2.77 4.15-4.34 6.11-1.72 2.15-3.63 4.13-5.39 6.25a.88.88 0 0 0 1.24 1.24z"/><path d="m584.75 439.63c-4.51.08-.93-6.84-4.2-8.13-1.4-.56-2.7.23-4 .7a5.55 5.55 0 0 1 -3.73 0c-3.74-1.41-1-6 .35-8.31 1.78-3.09 4.29-6.76 7.88-7.89a5.58 5.58 0 0 1 5.34.76 3.55 3.55 0 0 1 .8 4.41 1.38 1.38 0 0 0 1.87 1.87c2-1.32 4.45-.61 6.4.49 2.13 1.21 4 2.75 6.25 3.8 1.87.89 3.92 1.71 4.65 3.82a5.17 5.17 0 0 1 -1.14 5.33 1.4 1.4 0 0 0 1 2.36 6 6 0 0 1 5.29 9.82c-.5.59-1.37 1.33-2.22 1.1-.64-.17-1.06-.87-1.4-1.39-1.61-2.5-3.49-4.39-6.46-5.17a10.1 10.1 0 0 0 -8.3 1.34c-1.53 1.06-.06 3.58 1.46 2.5a7.49 7.49 0 0 1 9 .3c1.37 1.15 1.93 2.93 3.24 4.12a4.21 4.21 0 0 0 5 .45c3.31-1.88 4.53-6.56 3.3-10a8.92 8.92 0 0 0 -9-5.81l1 2.35a8 8 0 0 0 2.09-7.06c-.52-2.87-2.57-4.69-5.08-5.9a36.68 36.68 0 0 1 -4-2.12 36 36 0 0 0 -4.31-2.68c-2.59-1.23-5.72-1.64-8.23 0l1.87 1.88c2.21-3.63-.21-8.21-4.09-9.32-4.59-1.31-8.9 1.55-11.68 5a32.74 32.74 0 0 0 -4 6.3c-1 2.06-2.06 4.44-1.35 6.75 1.08 3.53 5.52 4.64 8.71 3.56.45-.16.87-.37 1.31-.56a4.44 4.44 0 0 1 .64-.24c.62-.18.31-.14.47.13a8.59 8.59 0 0 1 .14 2.17 8.92 8.92 0 0 0 .36 1.78c.7 2 2.64 3.93 4.93 3.14a.82.82 0 0 0 -.22-1.61z"/><path d="m801.55 608.94 3.71 16.39c.3 1.37.72 2.89 1.93 3.6a4.32 4.32 0 0 0 2.62.37c11.1-1.08 24.77-5.25 29-17 5.27-14.55-1.48-34.3-3.4-49-.6-4.54-2.86-11.87-8.43-12.12 3.11 0 7.57-3.18 10.53-.9a7 7 0 0 1 1.89 2.94 244.71 244.71 0 0 1 8.6 23.51 7.75 7.75 0 0 0 8.71 5.31l2.49-.39a7.78 7.78 0 0 0 6.48-9.34c-2.24-10.55-6.93-21.32-14.22-25.49 4.23-1.46 9 .68 12 4s4.47 7.71 5.91 11.94q6.55 19.22 13.09 38.43c1.18 3.46 2.46 7.07 5.14 9.55 2.13 2 5 3.09 6.73 5.45 1.33 1.85 1.71 4.2 2 6.46q2.22 15 4 30c.49 4.23.94 8.56 0 12.71-1.17 5-4.3 9.25-7.88 12.88-15.28 15.44-38.34 20.12-60 21-4.16.17-8.55.16-12.16-1.9-5.23-3-7.33-9.32-8.84-15.15a297.69 297.69 0 0 1 -7.55-40.84c-.55-4.85-1.83-10.29 1.44-13.91"/><path d="m800.61 609.2c1.09 5.68 2.16 11.38 3.49 17 .49 2 1.56 4 3.79 4.43a17.72 17.72 0 0 0 5.89-.38c7.51-1.16 15.31-3.72 20.92-9.07 6.28-6 7.77-14.85 7.55-23.19-.25-9.64-2.58-19.07-4.34-28.51-1.26-6.74-1.65-19.12-10.9-19.74v2.87c2.82-.08 5.51-2 8.31-1.72 1.66.18 2.3 1.66 2.89 3 .8 1.88 1.57 3.78 2.31 5.68q2.25 5.71 4.22 11.54c1.08 3.2 1.66 7.11 4.09 9.61a9.22 9.22 0 0 0 7.72 2.68c3.08-.38 6.11-.88 8.28-3.31a9.4 9.4 0 0 0 2.2-8 58.31 58.31 0 0 0 -2.83-9.85c-2.41-6.37-6-13.06-12.05-16.61l-.32 2.46c4.25-1.36 8.59 1 11.21 4.33 3.07 3.89 4.41 8.92 6 13.52l10.77 31.63c1.47 4.31 2.65 9.09 5.54 12.7 2.75 3.45 7.72 4.62 9 9.17a53 53 0 0 1 1.24 7.53c.39 2.79.76 5.58 1.13 8.37q1.13 8.31 2.09 16.63c.6 5.22 1.25 10.59-.69 15.62-1.66 4.31-4.8 7.92-8.12 11a62.9 62.9 0 0 1 -22.43 13.19 109.22 109.22 0 0 1 -26 5.4 102.13 102.13 0 0 1 -13.42.65c-4.56-.17-8.63-1.67-11.25-5.56-2.39-3.55-3.46-7.77-4.5-11.86q-2-8-3.58-16t-2.67-16c-.36-2.65-.66-5.32-1-8a47.46 47.46 0 0 1 -.59-6.29 8.38 8.38 0 0 1 1.74-5.62c1.26-1.46-.86-3.61-2.13-2.13-3.11 3.62-2.71 8.28-2.14 12.71.72 5.52 1.36 11.05 2.25 16.55q1.39 8.58 3.28 17.09a121.63 121.63 0 0 0 4 15.14c1.46 4 3.62 8 7.31 10.37 4.2 2.74 9.47 2.65 14.29 2.43a134.37 134.37 0 0 0 28.08-3.92 74.5 74.5 0 0 0 25.18-11.46c7.72-5.65 15.14-13.37 15.83-23.4.39-5.75-.75-11.67-1.46-17.36q-1.1-8.82-2.39-17.61c-.73-4.91-.9-10.37-5.1-13.7-1.79-1.42-3.88-2.46-5.44-4.15a18.4 18.4 0 0 1 -3.39-6.22c-4-10.9-7.51-22-11.25-33-1.74-5.09-3.19-10.44-5.62-15.25-2.11-4.17-5.41-7.82-10-9.19a11 11 0 0 0 -6.48 0 1.37 1.37 0 0 0 -.32 2.47c4.92 2.88 8 8.19 10.14 13.31a63.53 63.53 0 0 1 3 9.16c.68 2.76 1.06 5.43-1 7.74a6.32 6.32 0 0 1 -3 1.92 16.94 16.94 0 0 1 -4.54.65 6.39 6.39 0 0 1 -5.92-4.24c-1.23-3.55-2.28-7.15-3.54-10.69s-2.56-6.93-4-10.34c-1.23-3-2.3-6.87-6-7.4-3.13-.44-5.81 1.56-8.85 1.64a1.44 1.44 0 0 0 0 2.87c3.08.21 4.85 3.26 5.79 5.87 1.15 3.18 1.39 6.58 2 9.89 1.47 8.46 3.56 16.83 4.31 25.39.67 7.63.56 16.48-4.22 22.89-4.14 5.55-11 8.43-17.53 10-1.89.44-3.8.76-5.73 1a12.2 12.2 0 0 1 -3 .28c-1.25-.13-1.64-1.2-1.94-2.27-1.59-5.6-2.73-11.35-4.2-17-.33-1.23-2.12-.7-1.89.52z"/><path d="m816.13 647.55c-41 78.78-77.73 179-86.07 264.11-1.71 17.5-6.09 14.8-17.32 28.32a218.91 218.91 0 0 0 37.8 3.47c2.74 0 5.61-.05 8-1.38 4.87-2.71 5.75-9.19 6.46-14.72 5.42-42.22 32.68-78.21 45.84-118.7 3.42-10.52 5.9-21.39 10.46-31.47 6.77-15 17.52-27.56 27.81-40.21s20.61-25.42 30.91-38.14c8.06-10 18.5-20.08 20.28-33.38"/><path d="m815.2 647q-15.11 28.34-28 57.8c-8.93 20.38-17.19 41.06-24.58 62.05s-13.91 42-19.42 63.41a573 573 0 0 0 -12.61 62.37q-1 7.4-1.8 14.83c-.45 4.34-.67 8.75-1.93 12.95-1.74 5.74-6.58 9.17-10.59 13.31-1.61 1.66-3.14 3.39-4.6 5.17-.65.79-.57 2.35.68 2.56a216.07 216.07 0 0 0 39.42 3.3c5.09-.08 9.59-1.72 11.92-6.52 2.18-4.5 2.3-9.66 3.08-14.51 3.7-22.83 13.6-44 23.58-64.61 5.07-10.49 10.22-21 14.75-31.68 2.24-5.29 4.33-10.64 6.18-16.07 2.05-6 3.73-12.19 5.6-18.28a120 120 0 0 1 6.79-17.86 117.15 117.15 0 0 1 9.26-15.39c7.12-10.13 15.27-19.53 23.09-29.12 8.51-10.44 17-20.94 25.48-31.36 6.71-8.18 14.37-16 18.33-26a33.1 33.1 0 0 0 2-7.53c.28-2-2.77-2.85-3.06-.84-1.51 10.67-8.4 19.16-15.14 27.15-8.15 9.68-16 19.65-23.92 29.49-7.81 9.67-15.81 19.2-23.39 29-7.24 9.41-13.77 19.35-18.09 30.45-4.48 11.5-7.1 23.63-11.41 35.2-4 10.75-8.84 21.17-13.81 31.5-9.77 20.34-20.25 40.63-26 62.58a138.9 138.9 0 0 0 -3.23 16.42c-.59 4.33-1 9.71-4.34 12.92-2 1.94-4.8 2.31-7.48 2.35-3.17.06-6.35-.06-9.51-.2-6.59-.3-13.16-.88-19.69-1.82-3.23-.46-6.45-1-9.65-1.6l.68 2.56a104.43 104.43 0 0 1 8.45-8.77 33.7 33.7 0 0 0 5.51-6.06 24.19 24.19 0 0 0 3.2-8.92c.89-4.87 1.2-9.85 1.81-14.76a553.66 553.66 0 0 1 11.46-61.94c5.21-21.57 11.5-42.89 18.59-63.91s15-42.05 23.69-62.63q12.56-29.94 27-59c1.15-2.32 2.32-4.65 3.5-7 .62-1.23-1.21-2.32-1.86-1.09z"/><path d="m801.6 480.65a5.82 5.82 0 0 0 -1.69 7.35 6.11 6.11 0 0 0 7.05 2.79 1.18 1.18 0 0 0 0-2.26 5.51 5.51 0 0 0 -7.1 3.75 5.45 5.45 0 0 0 5.34 6.51 1.24 1.24 0 0 0 0-2.47 2.89 2.89 0 1 1 1.14-5.53v-2.26a3.91 3.91 0 0 1 -4.51-1.53 4.23 4.23 0 0 1 .75-5.08c.63-.62-.23-1.83-1-1.27z"/><g fill="#18c4ff"><path d="m840.18 672.83c6.07.69 12.14 1.27 18.21 1.85 1.36.13 1.36-2 0-2.12-6.07-.5-12.13-1-18.21-1.38-1.08-.07-1 1.54 0 1.65z"/><path d="m884.83 675.34a42 42 0 0 0 7 .21 29.36 29.36 0 0 0 6.92-1 1 1 0 0 0 -.53-1.93c-2.22.37-4.4.86-6.65 1a43.33 43.33 0 0 1 -6.74 0c-1.1-.09-1.07 1.58 0 1.7z"/><path d="m868.37 713.5c-2.92 5.2-7.33 9.28-11.52 13.45a76.21 76.21 0 0 0 -11.71 14.7 1.15 1.15 0 0 0 2 1.16 85.3 85.3 0 0 1 11.8-15c4-4.16 8.18-8.29 10.85-13.52.48-.93-.89-1.75-1.41-.82z"/><path d="m734.34 880.94a214.35 214.35 0 0 0 40.9 5.34c1.42.06 1.42-2.14 0-2.2a302.22 302.22 0 0 1 -40.46-4.71c-1-.18-1.47 1.33-.44 1.57z"/><path d="m916.26 887.93c5.13-3.65 10.34-7.17 15.77-10.37 5.16-3 10.71-6.6 16.86-6.87 1.54-.07 1.55-2.48 0-2.4-6.4.32-12 3.73-17.38 7a157.28 157.28 0 0 0 -16.24 11.34c-.71.58.23 1.82 1 1.29z"/><path d="m940.17 937.28c1.63-3 5.63-3.61 8-5.8s3.8-5.22 5.37-8a17.45 17.45 0 0 1 7.18-7.36c3.28-1.75 7-2.76 10.12-4.86a1 1 0 0 0 -1-1.65c-3.44 1.79-7.14 3-10.52 4.95a18.57 18.57 0 0 0 -7.15 7.32c-1.67 2.94-3 6.29-5.59 8.57s-6.24 2.87-7.9 6c-.49.93.9 1.75 1.41.82z"/></g><path d="m838.5 534a28.13 28.13 0 0 0 2.42 5.87 1 1 0 1 0 1.64-1 35.46 35.46 0 0 1 -2.5-5.34.81.81 0 0 0 -1.56.43z"/><path d="m880.63 564.16a240.49 240.49 0 0 1 12.46 47.89c.72 4.67 1.14 9.37 1.79 14.05.17 1.25 2.28 1 2.21-.3a172.48 172.48 0 0 0 -3.76-24.55 237.59 237.59 0 0 0 -6.33-24.18q-2.16-6.75-4.72-13.36c-.38-1-2-.56-1.6.45z"/><path d="m851.11 545.62c6.9-1.53 13.74-3.34 20.59-5.08 6.14-1.55 12.92-4 18.56.13 4.62 3.42 7.28 9.27 9.13 14.53a55.69 55.69 0 0 1 2.38 9.26 36.34 36.34 0 0 1 .63 9.76 7.29 7.29 0 0 1 -5.07 6.21c-2.67 1-5.39.94-8.14 1.39l1 .13.23.44-.37.89.14-.16a1.25 1.25 0 0 0 -1.77-1.76 1.77 1.77 0 0 0 .6 2.92 4.46 4.46 0 0 0 1.89 0c.75-.06 1.5-.15 2.24-.25a17.21 17.21 0 0 0 8-2.78 9.83 9.83 0 0 0 3.81-7.9 48 48 0 0 0 -1.13-11.35c-1.4-6.82-4-13.94-8.32-19.46a17.87 17.87 0 0 0 -7-5.59c-3.48-1.44-7.22-1.12-10.81-.3-4.45 1-8.84 2.34-13.24 3.53-4.61 1.24-9.21 2.47-13.77 3.85a.82.82 0 0 0 .43 1.58z"/><path d="m829.88 447.44c11.42-1.77 24.5-3.86 35 2.25 5.48 3.18 9.49 8.25 13.57 13q6.79 7.9 13.61 15.77c15.16 17.56 32 36.91 35 60.82a30.69 30.69 0 0 1 0 10.21 14.85 14.85 0 0 1 -5 8.28 49.73 49.73 0 0 1 -8.28 5.37c-3.37 1.91-6.81 3.68-10.27 5.41-1.53.77-.19 3 1.34 2.29 3.29-1.55 6.5-3.24 9.67-5a67.41 67.41 0 0 0 7.94-4.93 19.13 19.13 0 0 0 5.9-6.77 21.13 21.13 0 0 0 1.85-8.93c.11-12.21-4.65-24.37-10.64-34.8-6.23-10.86-14.23-20.6-22.35-30.08q-7-8.12-14-16.18c-4.35-5-8.54-10.44-13.87-14.48-11.57-8.76-26.73-6.51-40-3.88-1.12.22-.63 1.86.47 1.69z"/><path d="m837.1 454.33c1.07-.27 2.14-.53 3.21-.82a1 1 0 0 0 -.53-1.93c-1.07.29-2.12.62-3.18.93a.94.94 0 0 0 .5 1.82z"/><path d="m848.75 451.6c-2.67.37-4.8 1.9-6.82 3.59s-4.16 3.59-4.4 6.23a4.37 4.37 0 0 0 3.9 4.63c2.74.43 5-1.23 7-2.83l-2.1-.56c.9 2.63 1.76 5.35 3.72 7.41a14 14 0 0 0 6.33 3.42c2.34.7 4.84 1.13 7 2.32 2.54 1.4 3.81 3.9 5 6.45a336 336 0 0 0 16.38 32.5 128 128 0 0 0 11.24 16.5c.75.9 2.33-.3 1.63-1.26a221 221 0 0 1 -18.27-30.66c-2.69-5.34-5.22-10.75-7.68-16.19a30.44 30.44 0 0 0 -3.84-7.1 13.14 13.14 0 0 0 -6.28-3.86c-2.54-.82-5.29-1.21-7.65-2.51-2.91-1.61-4.15-4.66-5.12-7.68a1.26 1.26 0 0 0 -1.84-.75c-1.39 1.05-3.1 2.48-5 2.25s-2.22-1.85-1.33-3.32a18.88 18.88 0 0 1 3.62-3.85 14.11 14.11 0 0 1 5-3.08.86.86 0 0 0 -.45-1.65z"/><path d="m903.25 528.33c-3.37 1.28-6.75 2.54-10.11 3.85l-5 1.94c-1.66.63-3.42 1.15-5 1.94-1.32.65-.4 2.76 1 2.35a49.41 49.41 0 0 0 5-2q2.48-1 4.93-2.07c3.32-1.41 6.59-2.91 9.86-4.44.85-.4.24-1.87-.65-1.54z"/><g fill="#18c4ff"><path d="m118.89 302.34c21.82.32 43.64.28 65.47.36q9.24 0 18.49 0a1.18 1.18 0 0 0 0-2.35c-21.82-.13-43.65.08-65.47.15-6.17 0-12.33.11-18.49.2a.83.83 0 0 0 0 1.66z"/><path d="m118.89 317.77c21.82.32 43.64.29 65.47.36q9.24 0 18.49 0a1.18 1.18 0 0 0 0-2.35c-21.82-.13-43.65.07-65.47.15-6.17 0-12.33.1-18.49.19a.83.83 0 0 0 0 1.66z"/><path d="m118.89 333.21c21.82.32 43.64.28 65.47.36q9.24 0 18.49 0a1.18 1.18 0 0 0 0-2.35c-21.82-.13-43.65.08-65.47.15-6.17 0-12.33.11-18.49.2a.83.83 0 0 0 0 1.66z"/><path d="m118.89 348.64c21.82.32 43.64.29 65.47.36q9.24 0 18.49 0a1.18 1.18 0 0 0 0-2.35c-21.82-.13-43.65.07-65.47.15-6.17 0-12.33.1-18.49.19a.83.83 0 0 0 0 1.66z"/><path d="m118.89 396.46c21.82.32 43.64.28 65.47.36q9.24 0 18.49 0a1.18 1.18 0 0 0 0-2.35c-21.82-.13-43.65.07-65.47.14-6.17 0-12.33.11-18.49.2a.83.83 0 0 0 0 1.66z"/><path d="m118.89 411.89c21.82.33 43.64.29 65.47.36q9.24 0 18.49 0a1.18 1.18 0 0 0 0-2.35c-21.82-.13-43.65.07-65.47.15-6.17 0-12.33.11-18.49.2a.83.83 0 0 0 0 1.65z"/><path d="m118.89 427.33c21.82.32 43.64.28 65.47.36q9.24 0 18.49 0a1.18 1.18 0 0 0 0-2.36c-21.82-.12-43.65.08-65.47.15-6.17 0-12.33.11-18.49.2a.83.83 0 0 0 0 1.66z"/><path d="m118.89 442.76c21.82.33 43.64.29 65.47.36q9.24 0 18.49 0a1.18 1.18 0 0 0 0-2.35c-21.82-.13-43.65.07-65.47.15-6.17 0-12.33.11-18.49.2a.83.83 0 0 0 0 1.65z"/></g><path d="m242.72 303.87c-3.44 1-6.89 2-10.32 3l-4.92 1.48c-.82.25-1.65.57-2.49.75s-1.23 0-1.54-.9c-2.34-6.66-4.43-13.42-6.65-20.13l-.59 1.45c13.6-5.93 27.77-10.41 42-14.7q22-6.66 44-13.22l24.79-7.42-1.45-.59a45.93 45.93 0 0 1 5.12 15.13c.1.69.19 1.38.25 2.08a3.79 3.79 0 0 1 0 1.74c-.41.84-2.79 1.19-3.57 1.44l-8.52 2.79-34.11 11.14-19.42 6.34c-1.54.5-.88 2.94.67 2.43l37.03-12.05 18.24-5.94c3.08-1 6.18-2 9.24-3a4.74 4.74 0 0 0 2.53-1.55 5 5 0 0 0 .49-3.54 48.46 48.46 0 0 0 -5.69-18.28 1.3 1.3 0 0 0 -1.45-.59l-44.8 13.45c-14.4 4.32-28.88 8.46-43.13 13.25-7.93 2.67-15.78 5.59-23.46 8.93a1.29 1.29 0 0 0 -.58 1.44l3.85 11.61c.62 1.86 1.23 3.72 1.85 5.57.49 1.49.85 3.44 1.9 4.66s2.6 1.16 4.07.71c1.87-.56 3.73-1.21 5.59-1.81 3.88-1.26 7.75-2.56 11.62-3.86 1.12-.38.66-2.13-.5-1.79z"/><g fill="#18c4ff"><path d="m223.85 289.06c.25 1 .5 2 .73 3a.94.94 0 1 0 1.81-.5c-.34-1-.66-1.94-1-2.92a.81.81 0 0 0 -1-.56.82.82 0 0 0 -.56 1z"/><path d="m231.57 285.78c0 .11-.1.21-.13.32a1.86 1.86 0 0 0 0 .34v.31l-.06.61a.73.73 0 0 0 .08.36.67.67 0 0 0 .19.3.7.7 0 0 0 .3.19.64.64 0 0 0 .36.08.92.92 0 0 0 .93-.93v-.6-.43a1 1 0 0 0 -.24-.33 1.1 1.1 0 0 0 -.2-.35l-.17-.13a.53.53 0 0 0 -.3-.09.37.37 0 0 0 -.21 0 .46.46 0 0 0 -.2.05.42.42 0 0 0 -.18.11.56.56 0 0 0 -.21.22z"/><path d="m239.76 282.72a12.81 12.81 0 0 0 -.21 2.31v1a4.51 4.51 0 0 0 .21 1.28.94.94 0 0 0 1 .67 1 1 0 0 0 .81-.91 1.53 1.53 0 0 0 0-.37 1.49 1.49 0 0 0 0-.21c0 .13 0 .13 0 0s0-.32 0-.48c0-.34-.06-.69-.07-1 0-.7-.07-1.38 0-2.08a.87.87 0 0 0 -.74-.84.85.85 0 0 0 -.94.61z"/><path d="m248.62 280.22.21 1.2a.73.73 0 0 0 .16.3.62.62 0 0 0 .25.23.76.76 0 0 0 .33.11.69.69 0 0 0 .35 0 .89.89 0 0 0 .54-.41.93.93 0 0 0 .09-.69l-.38-1.15a.89.89 0 0 0 -.37-.48.63.63 0 0 0 -.3-.1.58.58 0 0 0 -.32 0 .78.78 0 0 0 -.48.37l-.08.19a.79.79 0 0 0 0 .43z"/><path d="m257.87 277.34v.75c0 .25 0 .49.05.73l.14 1.49a1 1 0 0 0 .28.68 1 1 0 0 0 .69.28 1 1 0 0 0 .68-.28.91.91 0 0 0 .28-.68l-.19-1.52a7.62 7.62 0 0 0 -.14-.94l-.19-.73a.78.78 0 0 0 -.88-.57.79.79 0 0 0 -.69.79z"/><path d="m265 275.58-.11.89a1 1 0 0 0 .28.68.79.79 0 0 0 .31.2.67.67 0 0 0 .37.08h.26a1 1 0 0 0 .42-.25l.15-.2a1 1 0 0 0 .14-.48l-.12-.89a.66.66 0 0 0 -.07-.33.59.59 0 0 0 -.18-.27.64.64 0 0 0 -.27-.18.72.72 0 0 0 -.33-.07h-.23a.78.78 0 0 0 -.37.22l-.14.17a1 1 0 0 0 -.11.43z"/><path d="m273.61 272.12a6.44 6.44 0 0 0 -.11 1.64 5.66 5.66 0 0 0 .13.92c0 .11.05.23.08.35a1.58 1.58 0 0 0 .14.36 1.15 1.15 0 0 0 .4.39.92.92 0 0 0 1.33-.54 1.19 1.19 0 0 0 0-.72c0-.11-.08-.23-.11-.34a5.47 5.47 0 0 1 -.14-.68v.24a5.88 5.88 0 0 1 0-1.39.84.84 0 0 0 -.25-.62.9.9 0 0 0 -.5-.24.87.87 0 0 0 -.95.63z"/><path d="m282.6 269.89h-.23-.22a1.1 1.1 0 0 0 -.23.09l-.18.14a1.33 1.33 0 0 0 -.14.19 1.22 1.22 0 0 0 -.1.24.09.09 0 0 0 0 0 1.65 1.65 0 0 0 0 .31 1.17 1.17 0 0 0 0 .32 1 1 0 0 0 .1.24l.08.1.08.1a.58.58 0 0 0 .12.1.6.6 0 0 0 .13.09l.11.05h.12a1.45 1.45 0 0 0 .29 0 .62.62 0 0 0 .35-.08.68.68 0 0 0 .29-.18.64.64 0 0 0 .18-.29.62.62 0 0 0 .08-.35v-.24a.84.84 0 0 0 -.23-.4l-.19-.14a.9.9 0 0 0 -.45-.13h.24-.05l.21.09.18.14.14.18-.17-.22.14.19v-.07l.09.21v-.1.23a.31.31 0 0 1 0-.1v.23-.08l-.08.2v-.05l-.13.17-.16.13s0 0 0 0l-.2.08h.05l.19-.08a.58.58 0 0 0 .23-.21.4.4 0 0 0 .1-.18.55.55 0 0 0 .07-.31v-.21l-.08-.19a.58.58 0 0 0 -.21-.23.5.5 0 0 0 -.27-.14z"/><path d="m288.35 267.11a7.32 7.32 0 0 0 -.17 1.87 7.78 7.78 0 0 0 .31 1.86 1 1 0 0 0 1.18.68 1 1 0 0 0 .68-1.19 7.66 7.66 0 0 1 -.28-1.24v.25a9.56 9.56 0 0 1 -.05-2 .86.86 0 0 0 -.25-.61.88.88 0 0 0 -1.45.38z"/><path d="m295.82 266.26.15.09-.17-.13a1.1 1.1 0 0 1 .21.22l-.14-.18a.93.93 0 0 1 .11.19l-.08-.2a1.29 1.29 0 0 1 .05.21v-.23a.61.61 0 0 1 0 .19v-.23a1 1 0 0 0 0 .48l.09.21a1 1 0 0 0 .32.32.64.64 0 0 0 .33.1.63.63 0 0 0 .36 0 .73.73 0 0 0 .3-.16.69.69 0 0 0 .23-.25.89.89 0 0 0 .12-.45.75.75 0 0 0 0-.15 1.59 1.59 0 0 0 -.06-.37 2 2 0 0 0 -.13-.34.57.57 0 0 0 -.08-.13 1.62 1.62 0 0 0 -.5-.51 1.92 1.92 0 0 0 -.33-.14h-.15a1 1 0 0 0 -.63.08l-.16.13a.62.62 0 0 0 -.17.26.42.42 0 0 0 -.06.21.62.62 0 0 0 0 .33l.08.19a.81.81 0 0 0 .29.29z"/><path d="m303.23 263.1v.34s0-.17 0 0a1.1 1.1 0 0 1 0 .18v.68a8.87 8.87 0 0 1 -.08 1.36v-.25a3.56 3.56 0 0 0 -.05.47v.27a.91.91 0 0 0 1.79.25 4.81 4.81 0 0 0 .09-1.89 9.54 9.54 0 0 0 -.35-1.83.82.82 0 0 0 -1-.57.84.84 0 0 0 -.56 1z"/><path d="m309.85 261.15-.08 1.18a.65.65 0 0 0 .07.34.73.73 0 0 0 .19.3.68.68 0 0 0 .29.18.69.69 0 0 0 .35.08 1 1 0 0 0 .64-.26.92.92 0 0 0 .26-.64l-.08-1.18a.61.61 0 0 0 -.08-.32.54.54 0 0 0 -.16-.26.86.86 0 0 0 -.58-.24.84.84 0 0 0 -.58.24l-.13.17a.81.81 0 0 0 -.11.41z"/><path d="m317.74 259.58a.79.79 0 0 0 0-1.58.79.79 0 0 0 0 1.58z"/><path d="m316.84 258.79-.16 1.62-.08.8a4.53 4.53 0 0 0 -.06.82.92.92 0 0 0 .79.89.91.91 0 0 0 1-.65 5.58 5.58 0 0 0 .12-1l.07-.83.13-1.65a.9.9 0 0 0 -.9-.9.92.92 0 0 0 -.9.9z"/><path d="m323.39 257 .25.89a.73.73 0 0 0 .17.31.56.56 0 0 0 .25.23.65.65 0 0 0 .33.11.63.63 0 0 0 .36 0l.22-.09a.89.89 0 0 0 .32-.32l.1-.22a1 1 0 0 0 0-.48l-.33-.87a1 1 0 0 0 -.4-.52.63.63 0 0 0 -.32-.1.69.69 0 0 0 -.35 0l-.21.09a.92.92 0 0 0 -.31.31.87.87 0 0 0 -.08.67z"/></g><path d="m708.13 371.92h-221.13c-3 0-6-.14-9 0h-.39l2.37 2.37v-122.08c0-1.64.14-3.35 0-5v-.21l-2.37 2.37h221.1c3 0 6 .14 9 0h.39l-2.34-2.37v111.62c0 5.14-.18 10.32 0 15.45v.22c0 3.06 4.75 3.07 4.75 0v-111.61c0-5.14.17-10.31 0-15.45a1.61 1.61 0 0 1 0-.22 2.41 2.41 0 0 0 -2.38-2.38h-221.13c-3 0-6-.06-9 0h-.39a2.41 2.41 0 0 0 -2.38 2.38v111.61c0 5.14-.17 10.32 0 15.45a1.61 1.61 0 0 1 0 .22 2.41 2.41 0 0 0 2.38 2.38h221.1c3 0 6 .06 9 0h.39c3.09 0 3.09-4.75.03-4.75z"/><path d="m491.53 261.32h202.74v98.67h-202.74z" fill="#18c4ff"/><g fill="#fff"><path d="m529.87 302.34c.86 6.06 1.93 12.12 2.6 18.2l1.07-1.41c-2.35.68-4.65 1.71-6.94 2.57-1.67.64-3.42 1.36-3.91 3.27a5.25 5.25 0 0 0 .38 3 2.07 2.07 0 0 1 -.08 2.15c-1.24 1.74-3.72 1.32-5.51 1a1.69 1.69 0 0 0 -2.06 2.06c.8 2.91-1.45 5.35-3.5 7.09-2.52 2.13-5.2 4.07-7.74 6.18s-5.06 4.28-7.55 6.47c-1.24 1.1-2.49 2.19-3.72 3.3a29.86 29.86 0 0 0 -3.75 3.62c-.85 1.08.23 3 1.6 2.08a39.43 39.43 0 0 0 4.24-3.61c1.36-1.21 2.72-2.41 4.12-3.58q4.28-3.57 8.69-7c4.72-3.66 12.94-8.21 10.83-15.45l-2 2.05c2.25.4 4.66.65 6.8-.34a5.62 5.62 0 0 0 3.35-4.58 9.25 9.25 0 0 0 -.68-3.07c-.25-.9.63-1.08 1.36-1.4 2.39-1.05 4.93-1.9 7.24-3.11a1.47 1.47 0 0 0 .67-1.65c-1.42-6-2.46-12.21-3.69-18.3-.24-1.18-1.93-.65-1.77.49z"/><path d="m563.76 326.18c-1.67-3.53-3.77-7.06-5-10.81a1.28 1.28 0 0 0 -1.2-.91c-3.05.06-4.91 2.6-6.71 4.72a12.25 12.25 0 0 1 -1.46 1.51l-.3.24c-.48.21-.42.3.18.25a9.14 9.14 0 0 1 -.89-.87l-4.1-4a1.52 1.52 0 0 0 -2.37.31l-3.35 5.53 2.16-.57a10.11 10.11 0 0 0 -5.9-1.43c-2 .14-2 3.33 0 3.19a7.41 7.41 0 0 1 4.3 1 1.62 1.62 0 0 0 2.17-.57l3.23-5.6-2.37.31 4.5 4.29c1.41 1.33 2.59 1.7 4.21.47 2.54-1.94 3.68-5.52 7-6.3l-1.41-.58c2 3.54 3.52 7.29 5.78 10.7a.84.84 0 0 0 1.45-.85z"/><path d="m545.47 337.34c.25-1.14.51-2.28.74-3.43.19-1 .75-2.4.19-3.33s-1.84-.87-2.82-.83c-1.21 0-2.42.08-3.63.15l1.3 1.3a35.5 35.5 0 0 0 -1.61-8.48 1.35 1.35 0 0 0 -2.59 0l-.2.83a1.29 1.29 0 0 0 2.49.69l.3-.8h-2.59a58.7 58.7 0 0 1 1.6 7.76 1.32 1.32 0 0 0 1.3 1.3c.9-.07 1.79-.17 2.69-.25l1.2-.12c.23 0 .45-.07.68-.08h.18q.39 0 0 0l-.29-.49a3.24 3.24 0 0 1 -.1 1.19c-.06.49-.12 1-.17 1.47-.11 1-.18 2-.27 2.95s1.4 1.11 1.6.22z"/><path d="m536.29 338.92v-.29a.92.92 0 0 0 -.1-.44.82.82 0 0 0 -.24-.37.77.77 0 0 0 -.36-.23.84.84 0 0 0 -.44-.1h-.3a1.13 1.13 0 0 0 -.51.29l-.17.23a1.08 1.08 0 0 0 -.16.58v.29a1 1 0 0 0 .1.44 1 1 0 0 0 .23.37.85.85 0 0 0 .37.23.84.84 0 0 0 .44.1h.3a1.2 1.2 0 0 0 .5-.29l.18-.23a1.18 1.18 0 0 0 .16-.58z"/><path d="m553.27 334.51-.3-.88a.78.78 0 0 0 -.18-.35.73.73 0 0 0 -.29-.26 1.11 1.11 0 0 0 -.78-.1l-.24.1a1 1 0 0 0 -.36.36l-.11.25a1 1 0 0 0 0 .54l.28.89a.78.78 0 0 0 .18.35.73.73 0 0 0 .29.26.74.74 0 0 0 .38.12.72.72 0 0 0 .41 0l.25-.1a1 1 0 0 0 .36-.37l.11-.24a1 1 0 0 0 0-.55z"/><path d="m544.87 311.37a1 1 0 0 0 0-2.05 1 1 0 0 0 0 2.05z"/><path d="m517.53 308.58a22.46 22.46 0 0 0 5.79.23l-1.15-1.16c-.13 1.72 0 3.44-.22 5.15a6.86 6.86 0 0 1 -.14 1.12c-.1.33-.26.41-.49.66a2.66 2.66 0 0 0 -.71 2.21c.22 1.5 1.49 2.48 2.28 3.68a10 10 0 0 1 1.56 4.21l1.76-1.33a6.63 6.63 0 0 0 -1.66-.11c-1.08.05-1.8 1.74-.61 2.26a6.91 6.91 0 0 0 1.53.52c.77.13 1.88-.37 1.75-1.34a13.6 13.6 0 0 0 -1.39-4.61 13 13 0 0 0 -1.26-1.92c-.31-.4-1.22-1.14-1.25-1.68 0-.25.73-1 .88-1.36a8.16 8.16 0 0 0 .33-2.31 23.65 23.65 0 0 0 -.1-5.45 1.16 1.16 0 0 0 -1.42-.81 10.39 10.39 0 0 1 -5 .35c-1.08-.16-1.59 1.45-.46 1.69z"/><path d="m518.65 331.55a1.18 1.18 0 0 0 0-2.35 1.18 1.18 0 0 0 0 2.35z"/><path d="m531.87 348.9a26 26 0 0 1 -9.53-1c-1.22-.38-2.29-.79-3.41.1-1 .78-1.42 2.12-2.14 3.12a13.74 13.74 0 0 1 -2.67 2.77 9.63 9.63 0 0 1 -3.29 1.91c-.63.14-.87-.09-1.42-.46a13 13 0 0 1 -1.67-1.38 22.7 22.7 0 0 1 -2.58-3.23 1.6 1.6 0 0 0 -2.76 1.61 15 15 0 0 0 6.24 6.25c2.63 1.36 5.65-.91 7.63-2.56a17.1 17.1 0 0 0 2.84-3.11 15.77 15.77 0 0 0 1.12-1.79c.41-.77.35-.94 1.19-.78a33.05 33.05 0 0 0 10.45.44c1.15-.15 1.22-1.94 0-1.86z"/><path d="m507.86 318.32c-.14 1.87-.26 3.73-.36 5.6a4.46 4.46 0 0 0 .21 2.43 5.13 5.13 0 0 0 1.81 1.65 11.73 11.73 0 0 0 2.19 1.08c.72.27 1.48.41 2.21.68a2.06 2.06 0 0 1 1.27 1.11c.28.64 0 1.28.17 1.94a1.25 1.25 0 0 0 2.07.54c1.08-1.3.44-3.37-.54-4.55-1.11-1.34-2.77-1.49-4.32-2a9.53 9.53 0 0 1 -2.09-.93c-.26-.15-.75-.36-.88-.64a2.89 2.89 0 0 1 0-1.06c0-2-.05-3.91-.1-5.87a.81.81 0 0 0 -1.61 0z"/><path d="m503.92 337.94a1.08 1.08 0 0 0 0-2.16 1.08 1.08 0 0 0 0 2.16z"/><path d="m596.12 300.86a73.7 73.7 0 0 1 16.87 8 1.5 1.5 0 0 0 1.79-.23 33.77 33.77 0 0 0 7.51-9.18 33.62 33.62 0 0 1 2.79-4.93 9 9 0 0 1 4.37-2.81 27.31 27.31 0 0 1 5.14-1c1.88-.21 3.68-.38 4.88-2a38.44 38.44 0 0 0 3-5.85l3.06-6.17q3.54-7.17 7.07-14.35c.84-1.72-1.72-3.24-2.59-1.51q-6.18 12.31-12.32 24.64c-.4.8-.67 1.64-1.58 1.91a18.12 18.12 0 0 1 -2.65.34 25.66 25.66 0 0 0 -5.21 1.08c-3.66 1.25-5.89 3.73-7.59 7.13a34 34 0 0 1 -8 10.64l1.78-.23a132.9 132.9 0 0 0 -17.72-7.77c-1.48-.49-2.09 1.81-.64 2.31z"/><path d="m645 322.52c1.78-4.12 3.34-8.46 5.47-12.41a1.28 1.28 0 0 0 -.46-1.75c-1.4-.6-2.85-1.08-4.29-1.6l-2.11-.76c-.48-.18-1.58-.37-1.86-.82a4.7 4.7 0 0 1 0-1.76 18.92 18.92 0 0 1 .17-2.12 20.25 20.25 0 0 1 .94-3.91 23.23 23.23 0 0 1 1.65-3.45 2.47 2.47 0 0 0 -.3-3.26 10.83 10.83 0 0 0 -3.07-1.4 12.41 12.41 0 0 1 -2.85-1.95 1.37 1.37 0 0 0 -2.27 1.33 4.58 4.58 0 0 0 2.42 2.74 14.17 14.17 0 0 0 1.67.79 8.77 8.77 0 0 0 1.87.74l.25.12-.39-.67a5.85 5.85 0 0 0 -.63 1.1c-.32.62-.6 1.26-.87 1.91a20.82 20.82 0 0 0 -1.24 4.26 20.35 20.35 0 0 0 -.33 4.2c0 1.28.07 2.68 1.1 3.59s2.71 1.18 4 1.59c1.73.56 3.46 1.21 5.22 1.66l-.89-1.57c-1.33 4.29-3.34 8.45-5 12.6-.44 1.08 1.44 1.88 1.9.8z"/><path d="m663.26 283a10.25 10.25 0 0 0 -5 2.25 14 14 0 0 0 -1.09.95 9 9 0 0 1 -.72.87c-.27.11-1.22-.28-1.48-.34l-1.69-.35a11.33 11.33 0 0 0 -2.87-.47 4.18 4.18 0 0 0 -2.54 1.4 12.16 12.16 0 0 1 -2.52 1.62 12.65 12.65 0 0 0 -2.83 1.33 1.22 1.22 0 0 0 .54 2c1.87.33 4.07-1 5.54-2.11.6-.45 1.5-1.62 2.24-1.6a21.4 21.4 0 0 1 3.25.62 7.11 7.11 0 0 0 2.81.29c.91-.22 1.35-1 1.94-1.63a13.79 13.79 0 0 1 4.91-3.22c.78-.35.41-1.75-.44-1.64z"/><path d="m626.77 275.9a1.2 1.2 0 0 0 0-2.4 1.2 1.2 0 0 0 0 2.4z"/></g></svg>