<svg width="20" height="20" viewBox="0 0 20 20" fill="none" xmlns="http://www.w3.org/2000/svg">
<path d="M17.558 14.0248L15.833 12.2582C15.462 11.9055 14.9939 11.6718 14.489 11.5871C13.9841 11.5025 13.4655 11.5707 12.9997 11.7832L12.2497 11.0332C13.1335 9.85226 13.5371 8.38039 13.3793 6.91386C13.2215 5.44732 12.514 4.09502 11.3992 3.12916C10.2844 2.16331 8.84511 1.65563 7.37105 1.70832C5.897 1.76101 4.49762 2.37015 3.45464 3.41314C2.41166 4.45612 1.80251 5.85549 1.74982 7.32955C1.69713 8.80361 2.20481 10.2429 3.17067 11.3577C4.13652 12.4725 5.48883 13.18 6.95536 13.3378C8.4219 13.4956 9.89376 13.092 11.0747 12.2082L11.8163 12.9498C11.5789 13.4162 11.4938 13.9453 11.5731 14.4626C11.6523 14.9799 11.8919 15.4593 12.258 15.8332L14.0247 17.5998C14.4934 18.068 15.1288 18.331 15.7913 18.331C16.4538 18.331 17.0892 18.068 17.558 17.5998C17.7961 17.367 17.9853 17.0889 18.1145 16.782C18.2437 16.475 18.3102 16.1454 18.3102 15.8123C18.3102 15.4793 18.2437 15.1496 18.1145 14.8427C17.9853 14.5357 17.7961 14.2577 17.558 14.0248ZM10.4913 10.4915C9.9082 11.0732 9.16575 11.469 8.35778 11.6289C7.54982 11.7888 6.71258 11.7057 5.95183 11.39C5.19109 11.0743 4.54097 10.5403 4.08359 9.85528C3.62622 9.1703 3.38211 8.36514 3.38211 7.5415C3.38211 6.71786 3.62622 5.91269 4.08359 5.22771C4.54097 4.54274 5.19109 4.00868 5.95183 3.69301C6.71258 3.37733 7.54982 3.2942 8.35778 3.45412C9.16575 3.61404 9.9082 4.00983 10.4913 4.5915C10.8794 4.97854 11.1872 5.43834 11.3973 5.94455C11.6073 6.45076 11.7154 6.99343 11.7154 7.5415C11.7154 8.08956 11.6073 8.63223 11.3973 9.13844C11.1872 9.64465 10.8794 10.1044 10.4913 10.4915ZM16.383 16.3832C16.3055 16.4613 16.2134 16.5233 16.1118 16.5656C16.0103 16.6079 15.9013 16.6297 15.7913 16.6297C15.6813 16.6297 15.5724 16.6079 15.4709 16.5656C15.3693 16.5233 15.2771 16.4613 15.1997 16.3832L13.433 14.6165C13.3549 14.539 13.2929 14.4469 13.2506 14.3453C13.2083 14.2438 13.1865 14.1348 13.1865 14.0248C13.1865 13.9148 13.2083 13.8059 13.2506 13.7043C13.2929 13.6028 13.3549 13.5106 13.433 13.4332C13.5105 13.3551 13.6026 13.2931 13.7042 13.2508C13.8057 13.2084 13.9147 13.1867 14.0247 13.1867C14.1347 13.1867 14.2436 13.2084 14.3451 13.2508C14.4467 13.2931 14.5389 13.3551 14.6163 13.4332L16.383 15.1998C16.4611 15.2773 16.5231 15.3695 16.5654 15.471C16.6077 15.5726 16.6295 15.6815 16.6295 15.7915C16.6295 15.9015 16.6077 16.0104 16.5654 16.112C16.5231 16.2135 16.4611 16.3057 16.383 16.3832Z" fill="#83828E"/>
</svg>
