<svg width="32" height="32" viewBox="0 0 32 32" fill="none" xmlns="http://www.w3.org/2000/svg">
<path d="M19.7733 15.0533L14.1199 9.40001C13.996 9.27504 13.8485 9.17585 13.686 9.10816C13.5235 9.04047 13.3493 9.00562 13.1733 9.00562C12.9972 9.00562 12.823 9.04047 12.6605 9.10816C12.498 9.17585 12.3505 9.27504 12.2266 9.40001C11.9783 9.64983 11.8389 9.98777 11.8389 10.34C11.8389 10.6923 11.9783 11.0302 12.2266 11.28L16.9466 16L12.2266 20.72C11.9783 20.9698 11.8389 21.3078 11.8389 21.66C11.8389 22.0123 11.9783 22.3502 12.2266 22.6C12.3512 22.7236 12.4989 22.8214 12.6614 22.8877C12.8238 22.9541 12.9978 22.9877 13.1733 22.9867C13.3487 22.9877 13.5227 22.9541 13.6851 22.8877C13.8476 22.8214 13.9953 22.7236 14.1199 22.6L19.7733 16.9467C19.8982 16.8227 19.9974 16.6753 20.0651 16.5128C20.1328 16.3503 20.1677 16.176 20.1677 16C20.1677 15.824 20.1328 15.6497 20.0651 15.4872C19.9974 15.3248 19.8982 15.1773 19.7733 15.0533Z" fill="#9897A1"/>
</svg>
