<svg width="48" height="48" viewBox="0 0 48 48" fill="none" xmlns="http://www.w3.org/2000/svg">
<path d="M33.92 23.6202C33.8724 23.4974 33.801 23.3853 33.71 23.2902L31.21 20.7902C31.0217 20.6019 30.7663 20.4961 30.5 20.4961C30.2337 20.4961 29.9783 20.6019 29.79 20.7902C29.6017 20.9785 29.4959 21.2339 29.4959 21.5002C29.4959 21.7665 29.6017 22.0219 29.79 22.2102L30.59 23.0002H26C25.7348 23.0002 25.4804 23.1055 25.2929 23.2931C25.1054 23.4806 25 23.735 25 24.0002C25 24.2654 25.1054 24.5198 25.2929 24.7073C25.4804 24.8948 25.7348 25.0002 26 25.0002H30.59L29.79 25.7902C29.6963 25.8831 29.6219 25.9937 29.5711 26.1156C29.5203 26.2375 29.4942 26.3682 29.4942 26.5002C29.4942 26.6322 29.5203 26.7629 29.5711 26.8848C29.6219 27.0066 29.6963 27.1172 29.79 27.2102C29.883 27.3039 29.9936 27.3783 30.1154 27.4291C30.2373 27.4798 30.368 27.506 30.5 27.506C30.632 27.506 30.7627 27.4798 30.8846 27.4291C31.0064 27.3783 31.117 27.3039 31.21 27.2102L33.71 24.7102C33.801 24.6151 33.8724 24.5029 33.92 24.3802C34.02 24.1367 34.02 23.8636 33.92 23.6202Z" fill="#EAEAEC"/>
<path d="M19.595 25.0018L15.005 25.0018C14.7398 25.0018 14.4854 24.8964 14.2979 24.7089C14.1103 24.5213 14.005 24.267 14.005 24.0018C14.005 23.7366 14.1103 23.4822 14.2979 23.2947C14.4854 23.1071 14.7398 23.0018 15.005 23.0018L19.595 23.0018L18.795 22.2118C18.7013 22.1188 18.6269 22.0082 18.5761 21.8863C18.5253 21.7645 18.4992 21.6338 18.4992 21.5018C18.4992 21.3698 18.5253 21.239 18.5761 21.1172C18.6269 20.9953 18.7013 20.8847 18.795 20.7918C18.888 20.698 18.9986 20.6236 19.1204 20.5729C19.2423 20.5221 19.373 20.496 19.505 20.496C19.637 20.496 19.7677 20.5221 19.8896 20.5729C20.0114 20.6236 20.122 20.698 20.215 20.7918L22.715 23.2918C22.806 23.3869 22.8774 23.499 22.925 23.6218C23.025 23.8652 23.025 24.1383 22.925 24.3818C22.8774 24.5045 22.806 24.6167 22.715 24.7118L20.215 27.2118C20.0267 27.4001 19.7713 27.5059 19.505 27.5059C19.2387 27.5059 18.9833 27.4001 18.795 27.2118C18.6067 27.0235 18.5009 26.7681 18.5009 26.5018C18.5009 26.2355 18.6067 25.9801 18.795 25.7918L19.595 25.0018Z" fill="#EAEAEC"/>
</svg>
