<svg width="20" height="20" viewBox="0 0 20 20" fill="none" xmlns="http://www.w3.org/2000/svg">
<path d="M15.833 5.83317H13.333V4.99984C13.333 4.11578 12.9818 3.26794 12.3567 2.64281C11.7316 2.01769 10.8837 1.6665 9.99967 1.6665C9.11562 1.6665 8.26777 2.01769 7.64265 2.64281C7.01753 3.26794 6.66634 4.11578 6.66634 4.99984V5.83317H4.16634C3.94533 5.83317 3.73337 5.92097 3.57709 6.07725C3.42081 6.23353 3.33301 6.44549 3.33301 6.6665V15.8332C3.33301 16.4962 3.5964 17.1321 4.06524 17.6009C4.53408 18.0698 5.16997 18.3332 5.83301 18.3332H14.1663C14.8294 18.3332 15.4653 18.0698 15.9341 17.6009C16.4029 17.1321 16.6663 16.4962 16.6663 15.8332V6.6665C16.6663 6.44549 16.5785 6.23353 16.4223 6.07725C16.266 5.92097 16.054 5.83317 15.833 5.83317ZM8.33301 4.99984C8.33301 4.55781 8.5086 4.13389 8.82116 3.82133C9.13372 3.50877 9.55765 3.33317 9.99967 3.33317C10.4417 3.33317 10.8656 3.50877 11.1782 3.82133C11.4907 4.13389 11.6663 4.55781 11.6663 4.99984V5.83317H8.33301V4.99984ZM14.9997 15.8332C14.9997 16.0542 14.9119 16.2661 14.7556 16.4224C14.5993 16.5787 14.3874 16.6665 14.1663 16.6665H5.83301C5.61199 16.6665 5.40003 16.5787 5.24375 16.4224C5.08747 16.2661 4.99967 16.0542 4.99967 15.8332V7.49984H6.66634V8.33317C6.66634 8.55418 6.75414 8.76615 6.91042 8.92243C7.0667 9.07871 7.27866 9.1665 7.49967 9.1665C7.72069 9.1665 7.93265 9.07871 8.08893 8.92243C8.24521 8.76615 8.33301 8.55418 8.33301 8.33317V7.49984H11.6663V8.33317C11.6663 8.55418 11.7541 8.76615 11.9104 8.92243C12.0667 9.07871 12.2787 9.1665 12.4997 9.1665C12.7207 9.1665 12.9326 9.07871 13.0889 8.92243C13.2452 8.76615 13.333 8.55418 13.333 8.33317V7.49984H14.9997V15.8332Z" fill="#F93E6C"/>
</svg>
