<svg width="48" height="48" viewBox="0 0 48 48" fill="none" xmlns="http://www.w3.org/2000/svg">
<path d="M24.29 27.29C24.247 27.3375 24.2069 27.3876 24.17 27.44C24.1322 27.4957 24.1019 27.5563 24.08 27.62C24.0512 27.6767 24.031 27.7374 24.02 27.8C24.0151 27.8666 24.0151 27.9334 24.02 28C24.0166 28.1312 24.044 28.2613 24.1 28.38C24.1449 28.5041 24.2166 28.6168 24.3099 28.7101C24.4032 28.8034 24.5159 28.8751 24.64 28.92C24.7597 28.9729 24.8891 29.0002 25.02 29.0002C25.1509 29.0002 25.2803 28.9729 25.4 28.92C25.5241 28.8751 25.6368 28.8034 25.7301 28.7101C25.8234 28.6168 25.8951 28.5041 25.94 28.38C25.9844 28.2584 26.0048 28.1294 26 28C26.0008 27.8684 25.9755 27.7379 25.9258 27.6161C25.876 27.4943 25.8027 27.3834 25.71 27.29C25.617 27.1963 25.5064 27.1219 25.3846 27.0711C25.2627 27.0203 25.132 26.9942 25 26.9942C24.868 26.9942 24.7373 27.0203 24.6154 27.0711C24.4936 27.1219 24.383 27.1963 24.29 27.29ZM25 14C23.0222 14 21.0888 14.5865 19.4443 15.6853C17.7998 16.7841 16.5181 18.3459 15.7612 20.1732C15.0043 22.0004 14.8063 24.0111 15.1922 25.9509C15.578 27.8907 16.5304 29.6725 17.9289 31.0711C19.3275 32.4696 21.1093 33.422 23.0491 33.8079C24.9889 34.1937 26.9996 33.9957 28.8268 33.2388C30.6541 32.4819 32.2159 31.2002 33.3147 29.5557C34.4135 27.9112 35 25.9778 35 24C35 22.6868 34.7413 21.3864 34.2388 20.1732C33.7363 18.9599 32.9997 17.8575 32.0711 16.9289C31.1425 16.0003 30.0401 15.2638 28.8268 14.7612C27.6136 14.2587 26.3132 14 25 14ZM25 32C23.4178 32 21.871 31.5308 20.5554 30.6518C19.2398 29.7727 18.2145 28.5233 17.609 27.0615C17.0035 25.5997 16.845 23.9911 17.1537 22.4393C17.4624 20.8874 18.2243 19.462 19.3432 18.3431C20.462 17.2243 21.8874 16.4624 23.4393 16.1537C24.9911 15.845 26.5997 16.0035 28.0615 16.609C29.5233 17.2145 30.7727 18.2398 31.6518 19.5554C32.5308 20.871 33 22.4177 33 24C33 26.1217 32.1572 28.1566 30.6569 29.6569C29.1566 31.1571 27.1217 32 25 32ZM25 19C24.4731 18.9997 23.9553 19.1381 23.4989 19.4014C23.0425 19.6648 22.6635 20.0437 22.4 20.5C22.3277 20.6138 22.2791 20.7411 22.2572 20.8742C22.2353 21.0073 22.2405 21.1434 22.2726 21.2744C22.3047 21.4054 22.363 21.5285 22.4439 21.6364C22.5248 21.7443 22.6267 21.8348 22.7435 21.9022C22.8602 21.9697 22.9895 22.0129 23.1233 22.0292C23.2572 22.0454 23.393 22.0345 23.5225 21.9969C23.6521 21.9593 23.7727 21.8959 23.8771 21.8105C23.9814 21.7251 24.0675 21.6195 24.13 21.5C24.2181 21.3474 24.345 21.2208 24.4978 21.133C24.6505 21.0452 24.8238 20.9993 25 21C25.2652 21 25.5196 21.1054 25.7071 21.2929C25.8946 21.4804 26 21.7348 26 22C26 22.2652 25.8946 22.5196 25.7071 22.7071C25.5196 22.8946 25.2652 23 25 23C24.7348 23 24.4804 23.1054 24.2929 23.2929C24.1054 23.4804 24 23.7348 24 24V25C24 25.2652 24.1054 25.5196 24.2929 25.7071C24.4804 25.8946 24.7348 26 25 26C25.2652 26 25.5196 25.8946 25.7071 25.7071C25.8946 25.5196 26 25.2652 26 25V24.82C26.6614 24.58 27.2174 24.1152 27.5708 23.5069C27.9242 22.8985 28.0525 22.1853 27.9334 21.4919C27.8143 20.7985 27.4552 20.169 26.919 19.7135C26.3828 19.258 25.7035 19.0055 25 19Z" fill="#EAEAEC"/>
</svg>
