<svg width="28" height="28" viewBox="0 0 28 28" fill="none" xmlns="http://www.w3.org/2000/svg">
<rect width="28" height="28" rx="4" fill="#F6F8FA"/>
<path d="M7.09121 17.575C7.01196 17.4991 6.9185 17.4397 6.81621 17.4C6.61333 17.3167 6.38576 17.3167 6.18288 17.4C6.08058 17.4397 5.98713 17.4991 5.90788 17.575C5.83201 17.6543 5.77254 17.7477 5.73288 17.85C5.66906 18.0018 5.65162 18.169 5.68277 18.3307C5.71391 18.4923 5.79224 18.6411 5.90788 18.7583C5.98888 18.8319 6.08189 18.8911 6.18288 18.9333C6.28263 18.9774 6.39048 19.0002 6.49954 19.0002C6.6086 19.0002 6.71646 18.9774 6.81621 18.9333C6.9172 18.8911 7.01021 18.8319 7.09121 18.7583C7.20684 18.6411 7.28517 18.4923 7.31632 18.3307C7.34746 18.169 7.33003 18.0018 7.26621 17.85C7.22655 17.7477 7.16708 17.6543 7.09121 17.575ZM9.83288 10.6667H21.4995C21.7206 10.6667 21.9325 10.5789 22.0888 10.4226C22.2451 10.2663 22.3329 10.0543 22.3329 9.83333C22.3329 9.61232 22.2451 9.40036 22.0888 9.24408C21.9325 9.0878 21.7206 9 21.4995 9H9.83288C9.61186 9 9.3999 9.0878 9.24362 9.24408C9.08734 9.40036 8.99954 9.61232 8.99954 9.83333C8.99954 10.0543 9.08734 10.2663 9.24362 10.4226C9.3999 10.5789 9.61186 10.6667 9.83288 10.6667ZM7.09121 13.4083C6.97402 13.2927 6.82521 13.2144 6.66355 13.1832C6.5019 13.1521 6.33464 13.1695 6.18288 13.2333C6.08189 13.2755 5.98888 13.3347 5.90788 13.4083C5.83201 13.4876 5.77254 13.581 5.73288 13.6833C5.68879 13.7831 5.66602 13.8909 5.66602 14C5.66602 14.1091 5.68879 14.2169 5.73288 14.3167C5.77508 14.4177 5.83427 14.5107 5.90788 14.5917C5.98888 14.6653 6.08189 14.7245 6.18288 14.7667C6.28263 14.8108 6.39048 14.8335 6.49954 14.8335C6.6086 14.8335 6.71646 14.8108 6.81621 14.7667C6.9172 14.7245 7.01021 14.6653 7.09121 14.5917C7.16482 14.5107 7.22401 14.4177 7.26621 14.3167C7.3103 14.2169 7.33307 14.1091 7.33307 14C7.33307 13.8909 7.3103 13.7831 7.26621 13.6833C7.22655 13.581 7.16708 13.4876 7.09121 13.4083ZM21.4995 13.1667H9.83288C9.61186 13.1667 9.3999 13.2545 9.24362 13.4107C9.08734 13.567 8.99954 13.779 8.99954 14C8.99954 14.221 9.08734 14.433 9.24362 14.5893C9.3999 14.7455 9.61186 14.8333 9.83288 14.8333H21.4995C21.7206 14.8333 21.9325 14.7455 22.0888 14.5893C22.2451 14.433 22.3329 14.221 22.3329 14C22.3329 13.779 22.2451 13.567 22.0888 13.4107C21.9325 13.2545 21.7206 13.1667 21.4995 13.1667ZM7.09121 9.24167C7.01196 9.1658 6.9185 9.10633 6.81621 9.06667C6.66445 9.00285 6.49719 8.98542 6.33553 9.01656C6.17387 9.04771 6.02506 9.12604 5.90788 9.24167C5.83427 9.32267 5.77508 9.41568 5.73288 9.51667C5.68879 9.61642 5.66602 9.72427 5.66602 9.83333C5.66602 9.94239 5.68879 10.0502 5.73288 10.15C5.77508 10.251 5.83427 10.344 5.90788 10.425C5.98888 10.4986 6.08189 10.5578 6.18288 10.6C6.33464 10.6638 6.5019 10.6813 6.66355 10.6501C6.82521 10.619 6.97402 10.5406 7.09121 10.425C7.16482 10.344 7.22401 10.251 7.26621 10.15C7.3103 10.0502 7.33307 9.94239 7.33307 9.83333C7.33307 9.72427 7.3103 9.61642 7.26621 9.51667C7.22401 9.41568 7.16482 9.32267 7.09121 9.24167ZM21.4995 17.3333H9.83288C9.61186 17.3333 9.3999 17.4211 9.24362 17.5774C9.08734 17.7337 8.99954 17.9457 8.99954 18.1667C8.99954 18.3877 9.08734 18.5996 9.24362 18.7559C9.3999 18.9122 9.61186 19 9.83288 19H21.4995C21.7206 19 21.9325 18.9122 22.0888 18.7559C22.2451 18.5996 22.3329 18.3877 22.3329 18.1667C22.3329 17.9457 22.2451 17.7337 22.0888 17.5774C21.9325 17.4211 21.7206 17.3333 21.4995 17.3333Z" fill="#F93E6C"/>
</svg>
