<svg width="20" height="20" viewBox="0 0 20 20" fill="none" xmlns="http://www.w3.org/2000/svg">
<path d="M10 8.3335C9.67037 8.3335 9.34813 8.43124 9.07405 8.61438C8.79997 8.79752 8.58635 9.05781 8.4602 9.36236C8.33406 9.6669 8.30105 10.002 8.36536 10.3253C8.42967 10.6486 8.5884 10.9456 8.82149 11.1787C9.05458 11.4118 9.35155 11.5705 9.67485 11.6348C9.99815 11.6991 10.3333 11.6661 10.6378 11.54C10.9424 11.4138 11.2026 11.2002 11.3858 10.9261C11.5689 10.652 11.6667 10.3298 11.6667 10.0002C11.6667 9.55814 11.4911 9.13421 11.1785 8.82165C10.866 8.50909 10.442 8.3335 10 8.3335ZM4.16667 8.3335C3.83703 8.3335 3.5148 8.43124 3.24072 8.61438C2.96664 8.79752 2.75301 9.05781 2.62687 9.36236C2.50072 9.6669 2.46772 10.002 2.53203 10.3253C2.59633 10.6486 2.75507 10.9456 2.98816 11.1787C3.22124 11.4118 3.51822 11.5705 3.84152 11.6348C4.16482 11.6991 4.49993 11.6661 4.80447 11.54C5.10902 11.4138 5.36931 11.2002 5.55245 10.9261C5.73559 10.652 5.83333 10.3298 5.83333 10.0002C5.83333 9.55814 5.65774 9.13421 5.34518 8.82165C5.03262 8.50909 4.6087 8.3335 4.16667 8.3335ZM15.8333 8.3335C15.5037 8.3335 15.1815 8.43124 14.9074 8.61438C14.6333 8.79752 14.4197 9.05781 14.2935 9.36236C14.1674 9.6669 14.1344 10.002 14.1987 10.3253C14.263 10.6486 14.4217 10.9456 14.6548 11.1787C14.8879 11.4118 15.1849 11.5705 15.5082 11.6348C15.8315 11.6991 16.1666 11.6661 16.4711 11.54C16.7757 11.4138 17.036 11.2002 17.2191 10.9261C17.4023 10.652 17.5 10.3298 17.5 10.0002C17.5 9.55814 17.3244 9.13421 17.0118 8.82165C16.6993 8.50909 16.2754 8.3335 15.8333 8.3335Z" fill="#9897A1"/>
</svg>
