<svg width="20" height="20" viewBox="0 0 20 20" fill="none" xmlns="http://www.w3.org/2000/svg">
<path d="M11.4917 8.50817C11.5691 8.58628 11.6613 8.64827 11.7629 8.69058C11.8644 8.73289 11.9733 8.75467 12.0833 8.75467C12.1933 8.75467 12.3023 8.73289 12.4038 8.69058C12.5054 8.64827 12.5975 8.58628 12.675 8.50817C12.7531 8.4307 12.8151 8.33853 12.8574 8.23698C12.8997 8.13544 12.9215 8.02651 12.9215 7.9165C12.9215 7.80649 12.8997 7.69757 12.8574 7.59602C12.8151 7.49447 12.7531 7.40231 12.675 7.32484L10.5917 5.2415C10.5124 5.16564 10.419 5.10617 10.3167 5.0665C10.1138 4.98316 9.88622 4.98316 9.68333 5.0665C9.58104 5.10617 9.48759 5.16564 9.40833 5.2415L7.325 7.32484C7.16808 7.48176 7.07992 7.69459 7.07992 7.9165C7.07992 8.13842 7.16808 8.35125 7.325 8.50817C7.48192 8.66509 7.69475 8.75325 7.91667 8.75325C8.13858 8.75325 8.35141 8.66509 8.50833 8.50817L9.16667 7.8415V12.1582L8.50833 11.4915C8.35141 11.3346 8.13858 11.2464 7.91667 11.2464C7.69475 11.2464 7.48192 11.3346 7.325 11.4915C7.16808 11.6484 7.07992 11.8613 7.07992 12.0832C7.07992 12.3051 7.16808 12.5179 7.325 12.6748L9.40833 14.7582C9.48759 14.834 9.58104 14.8935 9.68333 14.9332C9.78308 14.9773 9.89094 15 10 15C10.1091 15 10.2169 14.9773 10.3167 14.9332C10.419 14.8935 10.5124 14.834 10.5917 14.7582L12.675 12.6748C12.8319 12.5179 12.9201 12.3051 12.9201 12.0832C12.9201 11.8613 12.8319 11.6484 12.675 11.4915C12.5181 11.3346 12.3053 11.2464 12.0833 11.2464C11.8614 11.2464 11.6486 11.3346 11.4917 11.4915L10.8333 12.1582V7.8415L11.4917 8.50817ZM5.83333 3.33317H14.1667C14.3877 3.33317 14.5996 3.24537 14.7559 3.08909C14.9122 2.93281 15 2.72085 15 2.49984C15 2.27882 14.9122 2.06686 14.7559 1.91058C14.5996 1.7543 14.3877 1.6665 14.1667 1.6665H5.83333C5.61232 1.6665 5.40036 1.7543 5.24408 1.91058C5.0878 2.06686 5 2.27882 5 2.49984C5 2.72085 5.0878 2.93281 5.24408 3.08909C5.40036 3.24537 5.61232 3.33317 5.83333 3.33317ZM14.1667 16.6665H5.83333C5.61232 16.6665 5.40036 16.7543 5.24408 16.9106C5.0878 17.0669 5 17.2788 5 17.4998C5 17.7209 5.0878 17.9328 5.24408 18.0891C5.40036 18.2454 5.61232 18.3332 5.83333 18.3332H14.1667C14.3877 18.3332 14.5996 18.2454 14.7559 18.0891C14.9122 17.9328 15 17.7209 15 17.4998C15 17.2788 14.9122 17.0669 14.7559 16.9106C14.5996 16.7543 14.3877 16.6665 14.1667 16.6665Z" fill="#83828E"/>
</svg>
