<svg width="28" height="28" viewBox="0 0 28 28" fill="none" xmlns="http://www.w3.org/2000/svg">
<rect width="28" height="28" rx="4" fill="#F6F8FA"/>
<path d="M21.5003 5.6665H6.50033C6.27931 5.6665 6.06735 5.7543 5.91107 5.91058C5.75479 6.06686 5.66699 6.27882 5.66699 6.49984V21.4998C5.66699 21.7209 5.75479 21.9328 5.91107 22.0891C6.06735 22.2454 6.27931 22.3332 6.50033 22.3332H21.5003C21.7213 22.3332 21.9333 22.2454 22.0896 22.0891C22.2459 21.9328 22.3337 21.7209 22.3337 21.4998V6.49984C22.3337 6.27882 22.2459 6.06686 22.0896 5.91058C21.9333 5.7543 21.7213 5.6665 21.5003 5.6665ZM10.667 20.6665H7.33366V7.33317H10.667V20.6665ZM20.667 20.6665H12.3337V7.33317H20.667V20.6665Z" fill="#F93E6C"/>
</svg>
