<svg width="22" height="22" viewBox="0 0 22 22" fill="none" xmlns="http://www.w3.org/2000/svg">
<rect x="0.5" y="0.25" width="21.5" height="21.5" rx="4" fill="#FEF4DE"/>
<path d="M8.02557 15V13.858L11.0554 10.8878C11.3452 10.5952 11.5866 10.3352 11.7798 10.108C11.973 9.88068 12.1179 9.66051 12.2145 9.44744C12.3111 9.23437 12.3594 9.0071 12.3594 8.76562C12.3594 8.49006 12.2969 8.25426 12.1719 8.05824C12.0469 7.85938 11.875 7.70597 11.6562 7.59801C11.4375 7.49006 11.1889 7.43608 10.9105 7.43608C10.6236 7.43608 10.3722 7.49574 10.1562 7.61506C9.94034 7.73153 9.77273 7.89773 9.65341 8.11364C9.53693 8.32955 9.47869 8.58665 9.47869 8.88494H7.97443C7.97443 8.33097 8.10085 7.84943 8.35369 7.44034C8.60653 7.03125 8.95455 6.71449 9.39773 6.49006C9.84375 6.26562 10.3551 6.15341 10.9318 6.15341C11.517 6.15341 12.0313 6.26278 12.4744 6.48153C12.9176 6.70028 13.2614 7 13.5057 7.38068C13.7528 7.76136 13.8764 8.19602 13.8764 8.68466C13.8764 9.01136 13.8139 9.33239 13.6889 9.64773C13.5639 9.96307 13.3438 10.3125 13.0284 10.696C12.7159 11.0795 12.277 11.544 11.7116 12.0895L10.2074 13.6193V13.679H14.0085V15H8.02557Z" fill="#EF980B"/>
</svg>
